<svg width="50" height="50" viewBox="0 0 50 50" fill="none" xmlns="http://www.w3.org/2000/svg">
<g clip-path="url(#clip0_1216_16237)">
<path d="M41.4063 7.03125C42.2332 7.03125 42.9102 7.67372 42.9652 8.48677L42.9688 8.59375V41.4062C42.9688 42.2332 42.3263 42.9102 41.5132 42.9651L41.4063 42.9688H8.59375C7.76676 42.9688 7.08983 42.3263 7.03486 41.5132L7.03125 41.4062V8.59375C7.03125 7.76676 7.67372 7.08983 8.48677 7.03485L8.59375 7.03125H41.4063ZM15.625 36.8281H8.59375V41.4062H15.625V36.8281ZM24.2188 36.8281H17.1875V41.4062H24.2188V36.8281ZM32.8125 36.8281H25.7813V41.4062H32.8125V36.8281ZM41.4063 36.8281H34.375V41.4062H41.4063V36.8281ZM41.4063 14.7344H8.59375V35.2656H41.4063V14.7344ZM26.375 20.9922V25.0156L26.3281 25.4297L26.5625 25C26.6584 24.8107 26.7708 24.6304 26.8984 24.4609L29.6875 20.9922H31.25L28.2578 24.7812L31.6016 29.5547H29.9219L27.3438 25.8516L26.3828 26.9609L26.3984 29.5859H25V20.9922H26.375ZM22.5156 20.8047V26.9922H23.5313V28.125H22.4922V29.5703H21.0938V28.125H16.6484V27.2187L22.3516 20.8047H22.5156ZM21.1406 23.7031L21.0625 23.8047C20.9629 23.9453 20.8633 24.0815 20.767 24.2035L20.6719 24.3203L18.8828 26.4609C18.7983 26.56 18.7098 26.6557 18.6176 26.7477L18.4766 26.8828L18.3516 26.9922H18.4844C18.611 26.985 18.7378 26.9826 18.8646 26.985L19.0547 26.9922L21.1406 26.9453V24.4219C21.1308 24.2293 21.1308 24.0363 21.1406 23.8437C21.1368 23.797 21.1368 23.7499 21.1406 23.7031ZM32.8125 8.59375H25.7813V13.1719H32.8125V8.59375ZM24.2188 8.59375H17.1875V13.1719H24.2188V8.59375ZM15.625 8.59375H8.59375V13.1719H15.625V8.59375ZM41.4063 8.59375H34.375V13.1719H41.4063V8.59375ZM2.125 6.25H0.421875L2.89844 11.9844L0.0859375 18.4922L2.89844 25.0078L0.0859375 31.5156L2.89844 38.0234L0.421875 43.75H2.125L4.60156 38.0234L1.78906 31.5156L4.60156 25.0078L1.78906 18.4922L4.60156 11.9844L2.125 6.25ZM47.1016 24.9922L49.9141 18.4844L47.1016 11.9766L49.5703 6.25H47.8672L45.3984 11.9766L48.2109 18.4844L45.3984 24.9922L48.2109 31.5078L45.3984 38.0156L47.875 43.75H49.5703L47.1016 38.0156L49.9141 31.5078L47.1016 24.9922Z" fill="black"/>
</g>
<defs>
<clipPath id="clip0_1216_16237">
<rect width="50" height="50" fill="white"/>
</clipPath>
</defs>
</svg>
