<svg width="50" height="50" viewBox="0 0 50 50" fill="none" xmlns="http://www.w3.org/2000/svg">
<g clip-path="url(#clip0_1372_827)">
<path d="M25 4.16667C36.4875 4.16667 45.8333 13.5125 45.8333 25C45.8333 36.4875 36.4875 45.8333 25 45.8333C13.5125 45.8333 4.16667 36.4875 4.16667 25C4.16667 13.5125 13.5125 4.16667 25 4.16667ZM25 0C11.1937 0 0 11.1937 0 25C0 38.8062 11.1937 50 25 50C38.8062 50 50 38.8062 50 25C50 11.1937 38.8062 0 25 0ZM38.0208 18.5229L35.0604 15.5875L22.3417 28.5417L15.9292 22.4229L13.0208 25.4146L22.3958 34.4125L38.0208 18.5229Z" fill="black"/>
</g>
<defs>
<clipPath id="clip0_1372_827">
<rect width="50" height="50" fill="white"/>
</clipPath>
</defs>
</svg>
