<svg width="50" height="50" viewBox="0 0 50 50" fill="none" xmlns="http://www.w3.org/2000/svg">
<path d="M39.384 3.78581C40.4428 3.79355 41.4703 4.15977 42.2969 4.82812C43.8281 6.10937 45.0859 9.03125 42.3906 15.6328C40.5078 20.25 37.1172 25.6094 32.8359 30.7109C31.625 32.1562 30.3828 33.5156 29.1484 34.7891L29.1719 34.7969L28.625 35.3438L28.5625 35.4063L28.2188 35.7535L28.0469 35.9219L27.7554 36.2067C21.8302 41.9627 15.9526 45.5625 12.1094 45.5625C10.9773 45.6077 9.86719 45.2414 8.98438 44.5313C7.45313 43.2344 6.19531 40.3203 8.89062 33.7109C9.09375 33.2266 9.3125 32.7344 9.54688 32.2266L6.07812 33.7031L5.46875 32.2656L11.4141 29.7344L13.9375 35.7031L12.5 36.3125L11.0078 32.7656C8.67188 37.7812 8.13281 41.7578 9.98438 43.3203C10.5799 43.7923 11.327 44.0312 12.0859 43.9922C15.5391 43.9922 21.2734 40.4062 27.1094 34.6172L26.3281 33.4922H18.1563V26.7578H14.4766C13.6136 26.7578 12.9141 26.0583 12.9141 25.1953V14.7891C12.9141 13.9261 13.6136 13.2266 14.4766 13.2266H27.8438C28.3536 13.2256 28.8318 13.4735 29.125 13.8906L36.0859 23.8359C41.6484 15.6406 43.9688 8.27344 41.2891 6.02344C40.6909 5.55644 39.9457 5.3182 39.1875 5.35156C36.8516 5.35156 33.4688 7.03125 29.6875 9.85156H27.1953C31.8047 6.04687 36.125 3.78906 39.1719 3.78906L39.384 3.78581ZM38.0625 26.6562L43.8516 34.9219C45.8081 37.978 45.0052 42.0334 42.0319 44.1135C39.0585 46.1935 34.9736 45.5575 32.7734 42.6719L29.0156 37.3125C29.3516 36.9688 29.7656 36.5625 30.1328 36.1875L34.0391 41.7813C35.6894 44.1349 38.9354 44.7051 41.2891 43.0547C43.6427 41.4043 44.2129 38.1584 42.5625 35.8047L37.0938 27.9922C37.4297 27.5469 37.75 27.1016 38.0625 26.6562ZM27.8438 14.7891H14.4766V25.1953H21.6172C22.127 25.1944 22.6053 25.4422 22.8984 25.8594L28.2344 33.4922V33.4844C29.375 32.2969 30.5156 31.0469 31.6406 29.6875C32.8984 28.2031 34.0703 26.6875 35.1563 25.1953L27.8438 14.7891ZM21.6172 26.7578H19.7188V31.9297H25.2344L21.6172 26.7578ZM14.2188 9.07031V10.6328C12.0213 10.6328 10.2387 12.4119 10.2344 14.6094H8.67188C8.67619 11.549 11.1583 9.07031 14.2188 9.07031ZM14.2188 4.30469V5.86719C9.39109 5.87149 5.47736 9.78172 5.46875 14.6094H3.90625C3.91486 8.91878 8.52815 4.30899 14.2188 4.30469Z" fill="black"/>
</svg>
