<svg width="16" height="16" viewBox="0 0 16 16" fill="none" xmlns="http://www.w3.org/2000/svg">
<path d="M11.3335 14.1667H4.66683C2.2335 14.1667 0.833496 12.7667 0.833496 10.3334V5.66671C0.833496 3.23337 2.2335 1.83337 4.66683 1.83337H11.3335C13.7668 1.83337 15.1668 3.23337 15.1668 5.66671V10.3334C15.1668 12.7667 13.7668 14.1667 11.3335 14.1667ZM4.66683 2.83337C2.76016 2.83337 1.8335 3.76004 1.8335 5.66671V10.3334C1.8335 12.24 2.76016 13.1667 4.66683 13.1667H11.3335C13.2402 13.1667 14.1668 12.24 14.1668 10.3334V5.66671C14.1668 3.76004 13.2402 2.83337 11.3335 2.83337H4.66683Z" fill="black" stroke="black" stroke-width="0.5"/>
<path d="M7.9992 8.58C7.4392 8.58 6.87253 8.40667 6.4392 8.05333L4.35253 6.38665C4.1392 6.21331 4.09921 5.89998 4.27253 5.68665C4.44587 5.47331 4.75921 5.43331 4.97254 5.60665L7.0592 7.27333C7.56587 7.68 8.42587 7.68 8.93253 7.27333L11.0192 5.60665C11.2325 5.43331 11.5525 5.46665 11.7192 5.68665C11.8925 5.89998 11.8592 6.21998 11.6392 6.38665L9.55253 8.05333C9.12587 8.40667 8.5592 8.58 7.9992 8.58Z" fill="black" stroke="black" stroke-width="0.5"/>
</svg>
