<svg width="50" height="50" viewBox="0 0 50 50" fill="none" xmlns="http://www.w3.org/2000/svg">
<g clip-path="url(#clip0_1216_16233)">
<path d="M37.9531 31.1094C37.7267 34.1032 36.3658 36.8976 34.1484 38.9219C32.2734 40.6875 29.4609 42.9687 26.8359 43.7812C25.6333 44.1042 24.3667 44.1042 23.1641 43.7812C20.5156 43 17.6953 40.6562 15.8516 38.9219C13.6342 36.8976 12.2733 34.1032 12.0469 31.1094V30.6484L10.4844 30.5469V31.1953C10.706 34.2348 11.9699 37.1047 14.0625 39.3203V46.875H15.625V40.8359C17.5703 42.5625 20.1563 44.5312 22.7031 45.3125C24.206 45.7293 25.794 45.7293 27.2969 45.3125C29.8438 44.5312 32.4297 42.6016 34.375 40.875V46.875H35.9375V39.3203C38.0187 37.119 39.2817 34.2703 39.5156 31.25V30.6016L37.9531 30.7031C37.9688 30.7969 37.9688 30.9531 37.9531 31.1094ZM44.0938 12.0859L45.3906 12.9531L42.5703 17.1172C43.1069 17.7321 43.4037 18.5199 43.4063 19.3359V25.4844C43.3976 27.2959 41.9876 28.7913 40.1797 28.9062L29.2422 29.6328H29.1406C28.8993 29.6326 28.6613 29.5764 28.4453 29.4688L25.3203 27.9062C25.2121 27.8574 25.0952 27.8308 24.9766 27.8281C24.8554 27.8308 24.7359 27.8573 24.625 27.9062L21.5 29.4688C21.284 29.5764 21.046 29.6326 20.8047 29.6328H20.6953L9.75781 28.9062C7.96011 28.7959 6.55242 27.3166 6.53125 25.5156V19.3359C6.53122 18.5156 6.83134 17.7237 7.375 17.1094L4.60938 12.9531L5.90625 12.0859L8.63281 16.1797C9.0619 15.9938 9.52458 15.8981 9.99219 15.8984H40.0312C40.5047 15.8977 40.9731 15.9962 41.4062 16.1875L44.0938 12.0859ZM40.0234 17.4609H10.0234C8.9823 17.4566 8.1336 18.2948 8.125 19.3359V25.5078C8.13509 26.496 8.90454 27.3097 9.89063 27.375L20.8281 28.0938L23.9531 26.5312C24.2798 26.3739 24.6374 26.2912 25 26.2891C25.3661 26.2903 25.727 26.3758 26.0547 26.5391L29.1797 28.1016L40.1172 27.3828C41.1046 27.3178 41.8765 26.5051 41.8906 25.5156L41.9219 19.3359C41.9133 18.2948 41.0646 17.4566 40.0234 17.4609ZM25 3.125C34.4297 3.125 39.1094 8.50781 39.8906 14.3359H38.3281C37.3828 7.69531 31.1719 4.6875 25 4.6875C17.4609 4.6875 12.6484 9.375 11.7188 14.3359H10.1563C11.0625 8.59375 16.4688 3.125 25 3.125Z" fill="black"/>
</g>
<defs>
<clipPath id="clip0_1216_16233">
<rect width="50" height="50" fill="white"/>
</clipPath>
</defs>
</svg>
