<svg width="50" height="50" viewBox="0 0 50 50" fill="none" xmlns="http://www.w3.org/2000/svg">
<g clip-path="url(#clip0_1216_16241)">
<path d="M32.0312 5.46875C32.8942 5.46875 33.5938 6.16831 33.5938 7.03125V20.3125H42.9688V17.1875H37.5V15.625H50V17.1875H44.5312V21.875H5.46875V17.1875H0V15.625H12.5V17.1875H7.03125V20.3125H16.4062V7.03125C16.4062 6.16831 17.1058 5.46875 17.9688 5.46875H32.0312ZM32.0312 7.03125H17.9688V20.3125H32.0312V7.03125ZM25 9.76562C27.1574 9.76562 28.9062 11.5145 28.9062 13.6719C28.9062 15.8292 27.1574 17.5781 25 17.5781C22.8426 17.5781 21.0938 15.8292 21.0938 13.6719C21.0938 11.5145 22.8426 9.76562 25 9.76562ZM25 11.3281C23.7056 11.3281 22.6562 12.3775 22.6562 13.6719C22.6562 14.9663 23.7056 16.0156 25 16.0156C26.2944 16.0156 27.3437 14.9663 27.3437 13.6719C27.3437 12.3775 26.2944 11.3281 25 11.3281ZM44.0312 28.125C43.345 28.1237 42.6726 28.3188 42.0938 28.6875L34.7734 33.375C34.7124 33.2072 34.6366 33.0451 34.5469 32.8906C34.0909 32.1289 33.3475 31.5827 32.4844 31.375L15.8281 27.3125C15.3447 27.1951 14.8491 27.1347 14.3516 27.1328C13.1582 27.1328 11.9898 27.4743 10.9844 28.1172L3.02344 33.1406C2.66731 33.3675 2.4182 33.7289 2.33284 34.1425C2.24748 34.5561 2.33314 34.9866 2.57031 35.3359L7.19531 42.125C7.66844 42.8264 8.61387 43.0238 9.32812 42.5703L13.9531 39.625L29 43.2969C29.4837 43.4122 29.9793 43.4699 30.4766 43.4688C31.6644 43.4721 32.828 43.1331 33.8281 42.4922L45.9766 34.7734C47.3141 33.9026 47.9228 32.2581 47.4746 30.7263C47.0264 29.1945 45.6272 28.1375 44.0312 28.125ZM46.0469 32.1484C45.9328 32.6876 45.606 33.158 45.1406 33.4531L32.9922 41.1797C32.2397 41.6559 31.3671 41.9079 30.4766 41.9064C30.1027 41.9088 29.7299 41.8642 29.3672 41.7734L14.3203 38.1094C14.2004 38.078 14.077 38.0622 13.9531 38.0625C13.656 38.0621 13.3653 38.149 13.1172 38.3125L8.48437 41.25L3.85937 34.4609L11.8281 29.375C12.5798 28.896 13.4524 28.6413 14.3438 28.6406C14.7175 28.6415 15.0898 28.686 15.4531 28.7734L32.1172 32.8125C32.5719 32.925 32.9628 33.2142 33.2034 33.6161C33.4439 34.018 33.5141 34.4993 33.3984 34.9531C33.2896 35.4124 33.0005 35.8086 32.5964 36.0525C32.1923 36.2965 31.7071 36.3676 31.25 36.25L21.4453 33.8516L21.0781 35.4141L30.9141 37.8047C32.6814 38.2334 34.4647 37.1606 34.9141 35.3984C34.9373 35.2982 34.953 35.1963 34.9609 35.0937L42.9688 29.9844C43.6678 29.531 44.5715 29.5447 45.2565 30.0191C45.9416 30.4934 46.2723 31.3345 46.0938 32.1484H46.0469Z" fill="black"/>
</g>
<defs>
<clipPath id="clip0_1216_16241">
<rect width="50" height="50" fill="white"/>
</clipPath>
</defs>
</svg>
