<svg width="16" height="16" viewBox="0 0 16 16" fill="none" xmlns="http://www.w3.org/2000/svg">
<g opacity="0.6" clip-path="url(#clip0_1208_7544)">
<path d="M11.6333 15.1667C10.88 15.1667 10.0867 14.9867 9.26667 14.64C8.46668 14.3 7.66001 13.8334 6.87334 13.2667C6.09334 12.6934 5.34001 12.0534 4.62668 11.3534C3.92001 10.64 3.28001 9.88671 2.71334 9.11337C2.14001 8.31337 1.68001 7.51337 1.35334 6.74004C1.00668 5.91337 0.833344 5.11337 0.833344 4.36004C0.833344 3.84004 0.926677 3.34671 1.10668 2.88671C1.29334 2.41337 1.59334 1.97337 2.00001 1.59337C2.51334 1.08671 3.10001 0.833374 3.72668 0.833374C3.98668 0.833374 4.25334 0.893374 4.48001 1.00004C4.74001 1.12004 4.96001 1.30004 5.12001 1.54004L6.66668 3.72004C6.80668 3.91337 6.91334 4.10004 6.98668 4.28671C7.07334 4.48671 7.12001 4.68671 7.12001 4.88004C7.12001 5.13337 7.04668 5.38004 6.90668 5.61337C6.80668 5.79337 6.65334 5.98671 6.46001 6.18004L6.00668 6.65337C6.01334 6.67337 6.02001 6.68671 6.02668 6.70004C6.10668 6.84004 6.26668 7.08004 6.57334 7.44004C6.90001 7.81337 7.20668 8.15337 7.51334 8.46671C7.90668 8.85337 8.23334 9.16004 8.54001 9.41337C8.92001 9.73337 9.16668 9.89337 9.31334 9.96671L9.30001 10L9.78668 9.52004C9.99334 9.31337 10.1933 9.16004 10.3867 9.06004C10.7533 8.83337 11.22 8.79337 11.6867 8.9867C11.86 9.06004 12.0467 9.16004 12.2467 9.30004L14.46 10.8734C14.7067 11.04 14.8867 11.2534 14.9933 11.5067C15.0933 11.76 15.14 11.9934 15.14 12.2267C15.14 12.5467 15.0667 12.8667 14.9267 13.1667C14.7867 13.4667 14.6133 13.7267 14.3933 13.9667C14.0133 14.3867 13.6 14.6867 13.12 14.88C12.66 15.0667 12.16 15.1667 11.6333 15.1667ZM3.72668 1.83337C3.36001 1.83337 3.02001 1.99337 2.69334 2.31337C2.38668 2.60004 2.17334 2.91337 2.04001 3.25337C1.90001 3.60004 1.83334 3.96671 1.83334 4.36004C1.83334 4.98004 1.98001 5.65337 2.27334 6.34671C2.57334 7.05337 2.99334 7.78671 3.52668 8.52004C4.06001 9.25337 4.66668 9.96671 5.33334 10.64C6.00001 11.3 6.72001 11.9134 7.46001 12.4534C8.18001 12.98 8.92001 13.4067 9.65334 13.7134C10.7933 14.2 11.86 14.3134 12.74 13.9467C13.08 13.8067 13.38 13.5934 13.6533 13.2867C13.8067 13.12 13.9267 12.94 14.0267 12.7267C14.1067 12.56 14.1467 12.3867 14.1467 12.2134C14.1467 12.1067 14.1267 12 14.0733 11.88C14.0533 11.84 14.0133 11.7667 13.8867 11.68L11.6733 10.1067C11.54 10.0134 11.42 9.94671 11.3067 9.90004C11.16 9.84004 11.1 9.78004 10.8733 9.92004C10.74 9.9867 10.62 10.0867 10.4867 10.22L9.98001 10.72C9.72001 10.9734 9.32001 11.0334 9.01334 10.92L8.83334 10.84C8.56001 10.6934 8.24001 10.4667 7.88668 10.1667C7.56668 9.89337 7.22001 9.57337 6.80001 9.16004C6.47334 8.82671 6.14668 8.47337 5.80668 8.08004C5.49334 7.71337 5.26668 7.40004 5.12668 7.14004L5.04668 6.94004C5.00668 6.78671 4.99334 6.70004 4.99334 6.60671C4.99334 6.36671 5.08001 6.15337 5.24668 5.98671L5.74668 5.46671C5.88001 5.33337 5.98001 5.20671 6.04668 5.09337C6.10001 5.00671 6.12001 4.93337 6.12001 4.86671C6.12001 4.81337 6.10001 4.73337 6.06668 4.65337C6.02001 4.54671 5.94668 4.42671 5.85334 4.30004L4.30668 2.11337C4.24001 2.02004 4.16001 1.95337 4.06001 1.90671C3.95334 1.86004 3.84001 1.83337 3.72668 1.83337ZM9.30001 10.0067L9.19334 10.46L9.37334 9.99337C9.34001 9.9867 9.31334 9.99337 9.30001 10.0067Z" fill="white"/>
</g>
<defs>
<clipPath id="clip0_1208_7544">
<rect width="16" height="16" fill="white"/>
</clipPath>
</defs>
</svg>
