<svg width="16" height="16" viewBox="0 0 16 16" fill="none" xmlns="http://www.w3.org/2000/svg">
<g clip-path="url(#clip0_1354_1602)">
<path d="M11.6335 15.1667C10.8802 15.1667 10.0868 14.9867 9.26683 14.64C8.46683 14.3 7.66016 13.8334 6.8735 13.2667C6.0935 12.6934 5.34016 12.0534 4.62683 11.3534C3.92016 10.64 3.28016 9.88671 2.7135 9.11337C2.14016 8.31337 1.68016 7.51337 1.3535 6.74004C1.00683 5.91337 0.833496 5.11337 0.833496 4.36004C0.833496 3.84004 0.926829 3.34671 1.10683 2.88671C1.2935 2.41337 1.5935 1.97337 2.00016 1.59337C2.5135 1.08671 3.10016 0.833374 3.72683 0.833374C3.98683 0.833374 4.2535 0.893374 4.48016 1.00004C4.74016 1.12004 4.96016 1.30004 5.12016 1.54004L6.66683 3.72004C6.80683 3.91337 6.9135 4.10004 6.98683 4.28671C7.0735 4.48671 7.12016 4.68671 7.12016 4.88004C7.12016 5.13337 7.04683 5.38004 6.90683 5.61337C6.80683 5.79337 6.6535 5.98671 6.46016 6.18004L6.00683 6.65337C6.0135 6.67337 6.02016 6.68671 6.02683 6.70004C6.10683 6.84004 6.26683 7.08004 6.5735 7.44004C6.90016 7.81337 7.20683 8.15337 7.5135 8.46671C7.90683 8.85337 8.2335 9.16004 8.54016 9.41337C8.92016 9.73337 9.16683 9.89337 9.3135 9.96671L9.30016 10L9.78683 9.52004C9.9935 9.31337 10.1935 9.16004 10.3868 9.06004C10.7535 8.83337 11.2202 8.79337 11.6868 8.98671C11.8602 9.06004 12.0468 9.16004 12.2468 9.30004L14.4602 10.8734C14.7068 11.04 14.8868 11.2534 14.9935 11.5067C15.0935 11.76 15.1402 11.9934 15.1402 12.2267C15.1402 12.5467 15.0668 12.8667 14.9268 13.1667C14.7868 13.4667 14.6135 13.7267 14.3935 13.9667C14.0135 14.3867 13.6002 14.6867 13.1202 14.88C12.6602 15.0667 12.1602 15.1667 11.6335 15.1667ZM3.72683 1.83337C3.36016 1.83337 3.02016 1.99337 2.6935 2.31337C2.38683 2.60004 2.1735 2.91337 2.04016 3.25337C1.90016 3.60004 1.8335 3.96671 1.8335 4.36004C1.8335 4.98004 1.98016 5.65337 2.2735 6.34671C2.5735 7.05337 2.9935 7.78671 3.52683 8.52004C4.06016 9.25337 4.66683 9.96671 5.3335 10.64C6.00016 11.3 6.72016 11.9134 7.46016 12.4534C8.18016 12.98 8.92016 13.4067 9.6535 13.7134C10.7935 14.2 11.8602 14.3134 12.7402 13.9467C13.0802 13.8067 13.3802 13.5934 13.6535 13.2867C13.8068 13.12 13.9268 12.94 14.0268 12.7267C14.1068 12.56 14.1468 12.3867 14.1468 12.2134C14.1468 12.1067 14.1268 12 14.0735 11.88C14.0535 11.84 14.0135 11.7667 13.8868 11.68L11.6735 10.1067C11.5402 10.0134 11.4202 9.94671 11.3068 9.90004C11.1602 9.84004 11.1002 9.78004 10.8735 9.92004C10.7402 9.98671 10.6202 10.0867 10.4868 10.22L9.98016 10.72C9.72016 10.9734 9.32016 11.0334 9.0135 10.92L8.8335 10.84C8.56016 10.6934 8.24016 10.4667 7.88683 10.1667C7.56683 9.89337 7.22016 9.57337 6.80016 9.16004C6.4735 8.82671 6.14683 8.47337 5.80683 8.08004C5.4935 7.71337 5.26683 7.40004 5.12683 7.14004L5.04683 6.94004C5.00683 6.78671 4.9935 6.70004 4.9935 6.60671C4.9935 6.36671 5.08016 6.15337 5.24683 5.98671L5.74683 5.46671C5.88016 5.33337 5.98016 5.20671 6.04683 5.09337C6.10016 5.00671 6.12016 4.93337 6.12016 4.86671C6.12016 4.81337 6.10016 4.73337 6.06683 4.65337C6.02016 4.54671 5.94683 4.42671 5.8535 4.30004L4.30683 2.11337C4.24016 2.02004 4.16016 1.95337 4.06016 1.90671C3.9535 1.86004 3.84016 1.83337 3.72683 1.83337ZM9.30016 10.0067L9.1935 10.46L9.3735 9.99337C9.34016 9.98671 9.3135 9.99337 9.30016 10.0067Z" fill="black" stroke="black" stroke-width="0.5"/>
</g>
<defs>
<clipPath id="clip0_1354_1602">
<rect width="16" height="16" fill="white"/>
</clipPath>
</defs>
</svg>
