<svg width="18" height="18" viewBox="0 0 18 18" fill="none" xmlns="http://www.w3.org/2000/svg">
<path d="M18 2.25L17.4427 3.75H15.996L13.3905 12.75H3.46125L0 4.5H12.609L12.186 6H2.256L4.45875 11.25H12.2797L14.8538 2.25H18ZM6.375 13.5C5.754 13.5 5.25 14.004 5.25 14.625C5.25 15.2467 5.754 15.75 6.375 15.75C6.996 15.75 7.5 15.2467 7.5 14.625C7.5 14.004 6.996 13.5 6.375 13.5ZM11.55 8.25L10.125 13.5C9.504 13.5 9 14.0033 9 14.625C9 15.2467 9.504 15.75 10.125 15.75C10.746 15.75 11.25 15.2467 11.25 14.625C11.25 14.004 10.746 13.5 10.125 13.5L11.55 8.25Z" fill="black"/>
</svg>
