<svg width="15" height="16" viewBox="0 0 15 16" fill="none" xmlns="http://www.w3.org/2000/svg">
<g clip-path="url(#clip0_1204_456)">
<path d="M7.5 0.5C3.35813 0.5 0 3.85813 0 8C0 12.1419 3.35813 15.5 7.5 15.5C11.6419 15.5 15 12.1419 15 8C15 3.85813 11.6419 0.5 7.5 0.5ZM7.5 14.25C5.54813 14.25 3.80375 13.3494 2.65687 11.9437C2.81875 11.5763 3.14625 11.3219 3.82375 11.165C5.22625 10.8412 6.61062 10.5519 5.94438 9.32438C3.9725 5.68688 5.3825 3.625 7.5 3.625C9.57625 3.625 11.0212 5.61063 9.05562 9.32438C8.40875 10.5444 9.74312 10.8344 11.1763 11.165C11.8525 11.3212 12.1825 11.5744 12.3456 11.9406C11.1981 13.3488 9.45312 14.25 7.5 14.25Z" fill="black"/>
</g>
<defs>
<clipPath id="clip0_1204_456">
<rect width="15" height="15" fill="white" transform="translate(0 0.5)"/>
</clipPath>
</defs>
</svg>
