<svg xmlns="http://www.w3.org/2000/svg" xmlns:xlink="http://www.w3.org/1999/xlink" viewBox="0 0 1309 581">
<path style="fill:#3AADAA;" d="M1308,385.8c-108.8,53-227.6,112.4-369,194.7h2.3c140.4-81.6,258.5-140.7,366.7-193.4V385.8z M1308.1,565.2
	v-1.7c-5.6,5.7-11.1,11.3-16.6,16.9h1.6C1298,575.4,1303,570.3,1308.1,565.2L1308.1,565.2z M1307.9,555.3v-1.7
	c-9.2,9.1-18.3,18.1-27.3,26.9h1.7C1290.8,572.2,1299.4,563.8,1307.9,555.3L1307.9,555.3z M1286.2,580.6h1.7
	c6.6-6.7,13.3-13.4,20.1-20.2v-1.7C1300.7,566,1293.4,573.3,1286.2,580.6z M1308,394.2c-103.6,52.8-215.8,110.3-347.2,186.3h2.3
	c130.5-75.3,242-132.5,344.9-184.9V394.2z M766.7,418c-6.7,5.4-13.6,11-20.3,16.7c-73.6,64.4-135.2,112.7-186,145.8h2.2
	c50.4-33,111.3-80.8,184.6-144.9c6.6-5.8,13.6-11.3,20.3-16.7c4.9-3.9,10-8,14.9-12.1c78.9-66.4,155.3-120.8,227.2-161.7
	c65-37,128.4-64.2,188.4-80.7c37.6-10.4,74-16.8,110-19.4v-1.1c-36.1,2.5-72.6,8.9-110.3,19.3c-60.2,16.6-123.6,43.8-188.7,80.8
	c-72,41-148.5,95.4-227.4,161.9C776.7,410,771.6,414.1,766.7,418L766.7,418z M776.8,388.1c-6.8,5.7-13.9,11.6-20.6,17.7
	c-94.3,84.3-167.8,141.5-224.8,174.8h2.3c56.8-33.5,129.8-90.4,223.2-173.9c6.8-6.1,13.8-11.9,20.7-17.6c4.6-3.8,9.3-7.8,13.9-11.7
	c78.9-67.8,155.4-122.9,227.3-163.7c65.1-36.9,128.4-63.2,188.2-78.3c34.1-8.6,67.9-13.7,101-15.3v-1.2
	c-33.2,1.6-67.1,6.7-101.3,15.3c-60,15.1-123.4,41.5-188.5,78.4c-72,40.8-148.5,95.9-227.5,163.8
	C786.1,380.4,781.4,384.3,776.8,388.1L776.8,388.1z M1308,368.3c-118.6,52.8-250.4,115.6-412.2,212.2h2.3
	c160.7-95.8,291.9-158.4,409.9-210.9V368.3z M741.9,492.2c-6.5,4.8-13.2,9.7-19.5,14.9c-33.8,27.9-65,52.3-93.7,73.4h2
	c28.4-21,59.2-45.1,92.4-72.5c6.3-5.1,13-10,19.4-14.8c5.7-4.2,11.5-8.5,17.1-13c151-120.7,287-200.4,415.8-243.4
	c45-15,88.6-25.5,132.6-31.7v-1.2c-44.1,6.3-87.9,16.7-133,31.8c-128.9,43.1-265,122.7-416,243.6C753.4,483.7,747.6,488,741.9,492.2
	L741.9,492.2z M1308,377.1c-113.8,53.1-239.2,114.2-390.7,203.4h2.3c150.5-88.5,275.2-149.3,388.4-202.1V377.1z M760.9,391.3
	c-94.9,85.9-168.8,144.2-226,178.2c-6.7,4-13.2,7.7-19.5,11h2.5c5.7-3.1,11.5-6.4,17.6-10c57.1-34,131.1-92.4,226.1-178.3
	c6.8-6.1,13.9-12,20.7-17.8c4.5-3.8,9.2-7.8,13.7-11.7c78.9-68.5,155.4-123.9,227.3-164.7c65.1-36.8,128.4-62.8,188.1-77.1
	c32.9-7.8,64.9-12.3,96.5-13.5v-1.2c-31.6,1.2-63.8,5.7-96.7,13.6c-59.9,14.4-123.2,40.4-188.4,77.3
	c-72,40.8-148.5,96.2-227.5,164.8c-4.5,3.9-9.2,7.8-13.7,11.6C774.8,379.2,767.7,385.2,760.9,391.3L760.9,391.3z M20.5,580.5h1.9
	c80.9-65.7,145.1-110,196-135.5c44.7-22.4,78.4-29.7,103.1-22.3c34.2,10.3,46,47.5,57.3,83.5c10.1,31.9,19.7,62.2,43.7,74.3h2.8
	c-25.2-11.1-35-42-45.3-74.7c-11.5-36.3-23.3-73.8-58.1-84.2C269.2,405.8,173.4,456.3,20.5,580.5z M762,432.6
	c-6.7,5.4-13.7,10.9-20.2,16.6c-64.8,55.9-120.3,99.5-167.3,131.3h2c46.8-31.7,101.9-75,166-130.4c6.6-5.7,13.6-11.2,20.3-16.5
	c5-3.9,10.1-8,15.1-12.1c78.8-65.7,155.2-119.8,227.1-160.8c65-37,128.4-64.5,188.5-81.8c39-11.3,76.9-18.4,114.5-21.6v-1.2
	c-37.7,3.2-75.7,10.4-114.9,21.7c-60.2,17.3-123.7,44.8-188.7,81.9c-71.9,41-148.4,95.1-227.3,160.8
	C772.1,424.6,767,428.7,762,432.6L762,432.6z M765.7,376.8c-95.7,87.4-169.9,146.9-227,181.6c-14.9,9.1-28.7,16.4-41.3,22.1h2.8
	c12-5.5,25-12.5,39.1-21.1c57.1-34.7,131.4-94.2,227.1-181.7c7.1-6.5,14.5-12.8,21.6-18.9c4.2-3.5,8.5-7.2,12.6-10.8
	C879.5,278.8,956,223.1,1028,182.4c65.1-36.8,128.3-62.4,188-76c31.3-7.1,62-11.1,92-11.9v-1.2c-30.1,0.8-60.8,4.7-92.3,12
	c-59.7,13.6-123.1,39.2-188.3,76.1c-72,40.7-148.6,96.5-227.6,165.7c-4.1,3.6-8.4,7.3-12.5,10.8C780.2,364,772.8,370.3,765.7,376.8
	L765.7,376.8z M751.8,462.6c-6.6,5-13.3,10.1-19.8,15.6c-48.5,41-91.8,75.1-130.3,102.4h2c38.2-27.2,81.1-61,129.1-101.5
	c6.4-5.4,13.2-10.5,19.7-15.5c5.4-4.1,11-8.4,16.3-12.7c78.7-64.3,155-117.7,226.9-158.8c64.9-37.1,128.4-65.4,188.7-84.2
	c41.9-13,82.7-21.8,123.6-26.3v-1.2c-41,4.5-81.9,13.3-123.9,26.3c-60.5,18.8-124,47.2-189,84.3c-71.9,41.1-148.3,94.6-227,158.9
	C762.7,454.3,757.2,458.5,751.8,462.6L751.8,462.6z M756.8,447.7c-6.6,5.1-13.4,10.4-19.8,16c-56.4,48.2-105.8,87-148.7,116.8h2
	c42.6-29.7,91.6-68.2,147.4-115.9c6.4-5.6,13.3-10.9,19.9-16c5.2-4.1,10.6-8.3,15.8-12.5c78.7-65,155.1-118.8,227-159.8
	c64.9-37,128.4-65,188.6-83c40.4-12.1,79.8-20,119-23.8v-1.2c-39.4,3.8-78.8,11.8-119.4,23.9c-60.4,18-123.9,46-188.9,83.1
	c-71.9,41.1-148.4,94.9-227.2,159.9C767.4,439.5,762,443.7,756.8,447.7L756.8,447.7z M770.5,362.4
	C674.2,451.5,599.6,512,542.7,547.6c-26.7,16.6-49.5,27.6-68.8,33.1h4c18.6-5.9,40.3-16.6,65.3-32.1c57.1-35.5,131.7-96,228.1-185.2
	c7.3-6.7,14.8-13.3,22.1-19.6c3.9-3.4,7.9-6.9,11.8-10.4c78.9-69.9,155.4-126,227.4-166.6c65.1-36.8,128.3-61.9,187.9-74.8
	c29.9-6.4,59-9.9,87.5-10.4v-1.2c-28.6,0.5-57.8,4-87.8,10.5c-59.7,12.9-123,38.1-188.2,74.9c-72.1,40.7-148.6,96.8-227.6,166.7
	c-3.9,3.4-7.9,6.9-11.8,10.3C785.3,349.1,777.8,355.7,770.5,362.4L770.5,362.4z M1308,577.8c-0.8,0.9-1.7,1.8-2.5,2.7h1.6
	c0.3-0.3,0.6-0.7,0.9-1V577.8z M1308,573.1c-2.4,2.5-4.7,5-7,7.4h1.7c1.7-1.9,3.5-3.8,5.3-5.7V573.1z M1308,570.2l0.1-1.7
	c-3.9,4-7.8,8-11.6,12h1.6C1301.4,577.1,1304.7,573.7,1308,570.2L1308,570.2z M727.3,492.6c-41,34.2-78.2,63.4-112,87.9h2
	c33.4-24.3,70.2-53.2,110.7-87c6.3-5.3,13-10.3,19.5-15.2c5.5-4.1,11.3-8.4,16.7-12.8c78.7-63.6,155-116.7,226.9-157.9
	c64.8-37.2,128.3-65.9,188.8-85.4c46.6-15,89.4-23.9,128.1-28.8v-1.3c-42.4,5.4-84.7,14.9-128.4,29
	c-60.6,19.6-124.2,48.3-189.1,85.5c-71.9,41.2-148.3,94.4-227,158c-5.5,4.4-11.2,8.7-16.7,12.8C740.3,482.3,733.6,487.3,727.3,492.6
	z M329,414.2c-53-16.1-150.2,35.3-305.9,161.5c-2,1.6-3.9,3.2-5.8,4.7h1.9c1.6-1.3,3.1-2.5,4.7-3.8
	c83.4-67.7,149.3-113.3,201.4-139.2c44.9-22.3,78.7-29.6,103.3-22.1c33.9,10.3,45.3,47.2,56.4,82.8c10.9,35,21.1,68.1,51.3,76.1
	c25,6.7,61.1-5.4,110.6-36.7C604,501.3,679,439.6,776.3,348.7c7.3-6.8,14.8-13.5,22.1-19.9c3.8-3.4,7.7-6.8,11.5-10.2
	c78.9-70.6,155.4-127,227.4-167.6c65.1-36.7,128.3-61.5,187.8-73.6c28.1-5.8,55.9-8.8,83-9v-1.2c-27.3,0.3-55.1,3.2-83.3,9
	c-59.6,12.2-123,37-188.2,73.8c-72.1,40.6-148.7,97-227.8,167.7c-3.8,3.4-7.6,6.8-11.5,10.2c-7.3,6.4-14.8,13-22.1,19.9
	c-97.1,90.8-172,152.5-229,188.6c-49.1,31.2-85,43.1-109.6,36.6c-29.6-7.8-39.7-40.6-50.5-75.3C375,461.8,363.5,424.6,329,414.2
	L329,414.2z M228.3,529c-34.8-9.2-84.8,7.4-153.4,51.5H77c67.5-43.2,116.7-59.4,151-50.4c25.2,6.6,40.6,25.9,52.7,50.4h1.3
	C269.7,555.6,254.1,535.8,228.3,529L228.3,529z M60.4,580.5h2c86.1-60.6,146.2-84.1,185.6-73.5c32.3,8.8,47.6,38.8,60.8,73.5h1.2
	c-13.1-34.1-29-65.7-61.8-74.6C208.3,495.1,147.5,519,60.4,580.5z M771.2,403.5c-6.5,5.4-13.4,11-19.9,16.8
	c-83.7,74-151,126.7-205.1,160.3h2.2c53.9-33.7,120.8-86.1,203.7-159.4c6.5-5.8,13.3-11.3,19.9-16.7c5-4,10.1-8.2,15-12.4
	c78.9-67.1,155.3-121.9,227.2-162.7c65-36.9,128.4-63.7,188.3-79.5c35.6-9.4,70.9-15.1,105.5-17.2v-1.2c-34.7,2-70.1,7.8-105.8,17.2
	c-60.1,15.8-123.5,42.6-188.6,79.6c-71.9,40.9-148.5,95.7-227.4,162.8C781.3,395.3,776.2,399.5,771.2,403.5L771.2,403.5z
	 M241.5,513.6c-38.3-10.3-95.7,11.2-176.8,66.9h2.1c80-54.8,136.6-75.9,174.4-65.8c30,8,45.6,34.4,58.4,65.8h1.3
	C287.9,548.6,272.2,521.8,241.5,513.6L241.5,513.6z M215,544.3c-30.6-7.9-72.6,3.8-128.4,36.2h2.3c54.5-31.5,95.7-42.8,125.8-35.1
	c19.9,5.1,33.9,18,45,35.1h1.4C249.7,562.9,235.5,549.6,215,544.3L215,544.3z M80.5,580.5h2.2c61.1-37.3,106.4-51.1,138.7-42.7
	c22.6,5.9,37.4,21.9,49.1,42.7h1.3c-11.9-21.3-27-37.8-50.2-43.8C188.8,528.1,142.7,542.2,80.5,580.5z M112.2,580.5h2.9
	c32.3-13.4,58.7-17.3,79.8-12c9.5,2.4,17.7,6.5,25,12h1.9c-7.6-6-16.4-10.5-26.6-13.1C173.3,562,145.9,566.2,112.2,580.5z
	 M126.2,580.5h3.8c22.7-6.9,42.1-8.2,58.4-4.2c4.3,1,8.3,2.5,12.1,4.2h2.8c-4.6-2.3-9.5-4.1-14.7-5.4
	C171.3,570.9,150.6,572.6,126.2,580.5z M208.4,552c-28.2-7.1-65.8,2-114.6,28.5h2.4c47.6-25.5,84.3-34.3,111.9-27.3
	c16.8,4.3,29.5,14.1,39.8,27.3h1.5C238.9,566.7,225.8,556.4,208.4,552L208.4,552z M201.8,559.8c-25.3-6.4-58.1,0.3-99.6,20.7h2.6
	c40.2-19.5,72.1-25.8,96.7-19.6c13.4,3.4,24.3,10.3,33.4,19.6h1.7C227.1,570.6,215.9,563.3,201.8,559.8L201.8,559.8z M69.7,580.5
	h2.1c73.8-48.9,126.7-67.6,162.8-58c27.6,7.3,43.2,30,55.7,58h1.3c-12.6-28.5-28.4-51.7-56.7-59.2
	C198.2,511.6,144.6,530.6,69.7,580.5z M301.7,444.5C251.9,430,165.2,473.3,30.4,580.3h1.9c67-53.2,121.6-90.2,166.2-112.5
	c44.4-22.2,78-29.5,102.9-22.3c35.1,10.3,47.6,48.6,59.8,85.6c5.7,17.2,11.4,34.7,19.5,49.3h1.2c-8-14.3-13.7-31.7-19.6-49.6
	C350.1,493.5,337.4,454.9,301.7,444.5L301.7,444.5z M254.8,498.2C213.5,487,149.2,513.3,56,580.4h2c92.2-66.3,155.7-92.2,196.5-81.1
	c34.6,9.4,49.2,43.4,63,81.1h1.2C305.3,543.6,289.9,507.8,254.8,498.2L254.8,498.2z M315.2,429.2C263.4,413.8,170.6,462,23.7,580.5
	h1.9c76.3-61.5,137.3-103.4,186.2-127.9c44.7-22.3,78.4-29.6,103.1-22.3c34.5,10.3,46.5,47.9,58.1,84.2c8.2,25.8,16.2,50.7,31.5,66
	h1.7c-15.7-15.1-23.7-40.2-32.1-66.4C362.4,477.5,350.3,439.6,315.2,429.2L315.2,429.2z M37.1,580.6H39
	c122-94.9,201.8-133,248.9-119.5c35.7,10.2,48.9,49.2,61.6,87c3.7,10.9,7.4,22,11.7,32.4h1.3c-4.4-10.5-8.2-21.7-11.9-32.8
	c-12.8-38.1-26-77.4-62.4-87.8C240.6,446.3,160.2,484.8,37.1,580.6z M27.1,580.4H29c71.7-57.3,129.5-96.7,176.2-120.1
	c44.5-22.3,78.2-29.6,103-22.3c34.8,10.3,47.1,48.2,59,84.9c6.9,21.4,13.7,42.2,24.4,57.6h1.4c-11-15.4-17.8-36.3-24.8-58
	c-12-37-24.4-75.2-59.8-85.6C257.6,422,167.9,467.7,27.1,580.4z M295,452.2C246.2,438.1,162.6,479,33.6,580.5h1.9
	c128-100.6,210.9-141.1,259.1-127.2c35.5,10.2,48.3,48.9,60.8,86.3c4.6,14,9.4,28.2,15.3,40.9h1.2c-5.9-12.5-10.6-26.7-15.4-41.2
	C344,501.6,331,462.6,295,452.2L295,452.2z M51.8,580.5h2c98.2-72,165.1-100.4,207.3-88.8c36.8,10.1,51.3,50,65.1,88.8h1.2
	c-14-39.2-28.5-79.6-66-89.9C218.7,478.8,151.1,507.6,51.8,580.5z M268.1,482.9c-44-12.2-114.9,19-220,97.5H50
	c104.2-77.8,174.4-108.6,217.9-96.5c36.8,10.2,50.9,50.4,64.5,89.3c0.8,2.4,1.7,4.8,2.5,7.2h1.2c-0.9-2.5-1.8-5-2.7-7.5
	C319.7,533.8,305.5,493.3,268.1,482.9L268.1,482.9z M281.6,467.6c-46.5-13.2-123.8,22.9-240.8,112.8h1.9
	c116.1-89.1,192.7-124.8,238.7-111.8c36.1,10.3,49.6,49.7,62.6,87.8c2.7,8.1,5.5,16.2,8.5,24.1h1.2c-3.1-8-5.9-16.2-8.7-24.4
	C331.9,517.7,318.3,478,281.6,467.6L281.6,467.6z M44.2,580.6h1.9c110.1-83.4,183.5-116.7,228.3-104.1c36.5,10.2,50.3,50,63.6,88.5
	c1.8,5.2,3.6,10.4,5.5,15.6h1.2c-1.9-5.3-3.8-10.7-5.6-16c-13.4-38.8-27.3-78.9-64.3-89.3C229.5,462.6,155.4,496.2,44.2,580.6z
	 M1308,418.7c-31.5,18.1-63.6,36.3-96.7,55c-58.6,33.3-120.2,68.3-186.4,106.7h2.3c65.6-38,126.6-72.7,184.7-105.7
	c32.8-18.6,64.8-36.8,96.1-54.7V418.7L1308,418.7z M1308,528.3v-1.6c-20.6,18.5-40.8,36.4-60.8,53.8h1.8
	C1268.4,563.6,1288,546.2,1308,528.3L1308,528.3z M1308,544.8v-1.6c-13.3,12.7-26.5,25.1-39.5,37.3h1.7
	C1282.7,568.8,1295.2,557,1308,544.8L1308,544.8z M1308,533.9v-1.6c-18,16.5-35.8,32.6-53.3,48.2h1.8
	C1273.4,565.4,1290.6,549.9,1308,533.9L1308,533.9z M1308,483.9c-43.3,32.9-86.8,65-131.1,96.6h2c43.6-31.2,86.5-62.8,129.1-95.2
	V483.9z M1308,515.1c-26.3,22.6-52,44.4-77.5,65.4h1.8c24.9-20.5,50-41.7,75.7-63.8V515.1z M1308.1,522.5V521
	c-23.4,20.5-46.4,40.3-69,59.5h1.8C1262.9,561.8,1285.2,542.5,1308.1,522.5L1308.1,522.5z M1308,509.1c-29.2,24.5-58.2,48.3-87,71.4
	h1.9c28.2-22.7,56.5-45.9,85.1-69.9V509.1z M1308,491.9v-1.5c-39.5,30.8-79,60.8-118.9,90.1h2C1230.3,551.7,1269.1,522.2,1308,491.9
	L1308,491.9z M1308,498.2l0.1-1.5c-35.9,28.7-71.7,56.6-107.5,83.7h1.9C1237.6,553.8,1272.7,526.4,1308,498.2L1308,498.2z
	 M1308,502.9c-32.5,26.7-64.7,52.5-96.9,77.6h1.9c31.5-24.6,63.1-49.9,95-76V502.9z M1308,539.4v-1.6c-15.6,14.6-31,28.8-46.2,42.7
	h1.7C1278.2,567.2,1293,553.4,1308,539.4L1308,539.4z M1111.2,437.4c-84.4,41.4-169.4,88.7-256.9,143h2.2
	c86.9-53.8,171.3-100.8,255.2-141.9c71-34.8,136.1-62.8,196.3-87.1v-1.3C1247.7,374.5,1182.4,402.6,1111.2,437.4z M1308,550.1v-1.6
	c-11.3,10.8-22.3,21.5-33.3,32h1.7C1286.8,570.6,1297.4,560.4,1308,550.1L1308,550.1z M244.8,413.3
	c-52.7,26.2-119.6,72.3-204.5,140.8c-10.8,8.8-21.8,17.6-32.9,26.3h1.9c10.7-8.4,21.3-16.8,31.8-25.3
	c84.8-68.6,151.6-114.6,204.3-140.8c45.2-22.4,79.1-29.7,103.5-22.1c33,10.3,43.7,46.1,54,80.8c9.8,33,19.1,64.2,46.8,71.5
	c3.8,1,8,1.5,12.5,1.5c54.7,0,157.5-75.5,328.2-240.7c10.7-10.4,21.2-20.1,32.9-30.8c78.8-72.7,155.3-130.1,227.4-170.5
	c65.3-36.7,128.4-60.3,187.7-70.2c23.6-4,46.8-5.8,69.5-5.5v-1.2c-22.7-0.3-46,1.5-69.7,5.5c-59.4,10-122.6,33.6-188,70.3
	c-72.1,40.5-148.7,97.9-227.6,170.7c-11.6,10.7-22.1,20.4-32.9,30.8c-99,95.7-174.9,160.9-231.8,199.1c-49.1,33-84.4,46-108,39.8
	c-27.1-7.1-36.3-38-46-70.7c-10.4-34.9-21.2-71.1-54.8-81.5C324.4,383.4,290.3,390.7,244.8,413.3L244.8,413.3z M51.7,539.8
	c-17.3,14-34.6,27.5-51.8,40.7h1.9c16.9-12.9,33.7-26.1,50.6-39.7c85.8-69.1,153.2-115.6,206.3-141.9
	c45.4-22.5,79.3-29.7,103.6-22.1c32.5,10.2,42.7,45.4,52.5,79.4c9.2,31.7,17.9,61.7,44,68.5c23.3,6.1,58.5-7.7,107.7-42
	c56.9-39.7,133.3-107.2,233.6-206.3C918.2,159.7,1030.5,79,1133.7,36.8c60.9-25,119.2-36.8,174.3-35.5V0.1
	c-55.2-1.3-113.7,10.6-174.8,35.6c-103.3,42.3-215.7,123-333.8,239.8C612.9,459.7,508,536.2,459.2,523.5
	c-25.5-6.6-34.1-36.3-43.2-67.7c-10-34.3-20.2-69.8-53.3-80.2c-24.6-7.8-58.8-0.5-104.5,22.2C205,424.2,137.5,470.6,51.7,539.8
	L51.7,539.8z M251.5,405.5C198.5,431.8,131.3,478.1,46,547c-14.2,11.5-28.3,22.7-42.3,33.5h1.9C19.2,569.9,33,559,46.7,547.9
	c85.3-68.8,152.4-115,205.3-141.3c45.3-22.5,79.2-29.7,103.5-22.1c32.7,10.2,43.1,45.8,53.2,80.1c9.5,32.4,18.5,63,45.4,70
	c3.7,0.9,7.7,1.4,12,1.4c54.1,0,157-76.9,329.1-245.2c11.2-10.9,22.3-21.3,32.7-31c150.5-140.1,290.1-221,415-240.4
	c22.2-3.4,43.9-4.9,65.2-4.5v-1.2c-21.4-0.4-43.2,1.1-65.4,4.5c-125.2,19.4-265,100.4-415.5,240.8c-10.4,9.6-21.5,20.1-32.7,31
	c-99.6,97.4-175.7,163.6-232.6,202.6c-49,33.5-84.1,46.9-107.4,40.8c-26.3-6.9-35.2-37.1-44.6-69.2c-10.2-34.7-20.7-70.5-54-80.9
	C331.3,375.6,297.1,382.8,251.5,405.5L251.5,405.5z M238.1,421C185.5,447.2,119,493.1,34.6,561.5c-8.2,6.6-16,12.9-23.7,19h1.9
	c7.3-5.8,14.8-11.8,22.5-18.1c84.3-68.3,150.8-114.2,203.3-140.3c45.1-22.4,78.9-29.6,103.4-22.1c33.3,10.2,44.2,46.4,54.8,81.4
	c10.2,33.7,19.8,65.5,48.3,73c24.3,6.3,60.1-6.4,109.5-38.9c57-37.6,132.6-101.6,231-195.7c8.6-8.1,17.4-16.1,25.8-23.8
	c2.5-2.3,5-4.6,7.4-6.8c78.9-72,155.4-129,227.4-169.5c65.2-36.7,128.4-60.6,187.7-71.3c25.1-4.5,49.9-6.7,74.1-6.5v-1.2
	c-24.3-0.1-49.1,2.1-74.3,6.6c-59.5,10.7-122.8,34.7-188.1,71.3C973.5,159.1,897,216.2,818,288.3c-2.4,2.3-4.9,4.5-7.4,6.8
	c-8.5,7.8-17.2,15.7-25.8,23.9C686.5,413,610.9,477,554,514.5c-49,32.3-84.5,45-108.5,38.7c-27.9-7.3-37.4-38.8-47.5-72.2
	c-10.7-35.3-21.7-71.8-55.6-82.2C317.6,391.2,283.5,398.4,238.1,421L238.1,421z M1115.6,423c-92,44.2-185,96.1-281.5,157.4h2.2
	c96-60.8,188.4-112.4,279.9-156.3c69-33,130.9-58.8,191.8-82.1v-1.2C1246.9,364.1,1184.9,390,1115.6,423z M231.5,428.7
	c-52.3,26.1-118.6,71.8-202.6,139.9c-4.9,4.1-9.8,8-14.6,11.9h1.9c4.4-3.6,8.9-7.3,13.5-11c83.9-68,150.1-113.7,202.4-139.7
	c45-22.4,78.8-29.7,103.3-22.2c33.6,10.3,44.8,46.8,55.6,82.1c10.5,34.4,20.5,66.9,49.8,74.6c24.6,6.5,60.6-5.9,110-37.8
	c57-36.8,132.3-99.7,230.1-192.2c8.2-7.7,16.7-15.3,24.8-22.6c2.9-2.6,5.8-5.1,8.6-7.7c78.9-71.4,155.4-128.1,227.4-168.6
	c65.1-36.7,128.3-61.1,187.7-72.5c26.7-5.1,52.9-7.7,78.6-7.7V54c-25.7,0-52,2.6-78.8,7.7c-59.5,11.4-122.8,35.9-188.1,72.5
	c-72,40.6-148.6,97.3-227.6,168.7c-2.8,2.5-5.7,5.1-8.6,7.7c-8.1,7.4-16.6,14.9-24.8,22.7c-97.8,92.4-173,155.2-230,192.1
	c-49.1,31.8-84.8,44.1-109.1,37.7c-28.7-7.6-38.6-39.8-49-73.8c-10.9-35.6-22.1-72.4-56.3-82.8C310.9,398.9,276.8,406.2,231.5,428.7
	L231.5,428.7z M1124.9,394.4c-106.1,48.6-214.3,109.9-328.6,186h2.1c113.6-75.7,221.4-136.6,327-185C1191.8,365,1252,342,1308,322.8
	v-1.2C1251.8,340.8,1191.6,363.9,1124.9,394.4z M1308,331.3c-58.2,21.1-120.2,45.8-187.5,77.4c-99.3,46.5-200,103.1-305.5,171.7h2.1
	C922,512.3,1022.2,456,1120.9,409.7c67.2-31.5,129-56.2,187.1-77.2V331.3L1308,331.3z M1308,313v-1.2
	c-144.9,46.7-310.8,118.8-529.7,268.6h2.1C998.2,431.4,1163.6,359.6,1308,313L1308,313z M1308,281.2c-50.4,13.3-105.3,31-164.9,55.5
	c-130.5,54-265.9,133.7-413.9,243.7h2c147.5-109.5,282.4-188.8,412.4-242.6c59.4-24.5,114.2-42.1,164.4-55.4V281.2L1308,281.2z
	 M1308,291.5c-52,14.8-108,33.7-169.4,59.7c-124.8,53-253.8,128.2-393.7,229.2h2c139.3-100.6,267.8-175.4,392.2-228.2
	c61.2-25.9,117-44.8,168.9-59.5V291.5L1308,291.5z M713.2,580.2c-0.1,0.1-0.3,0.2-0.4,0.3h2.1c5.8-3.9,11.8-7.9,17.5-12.2
	c149.2-112.2,285.2-192.3,415.8-244.8c58-23.4,111.2-39.7,159.8-51.6v-1.2c-48.7,11.9-102,28.2-160.2,51.7
	c-130.7,52.5-266.8,132.7-416.1,245C725.7,571.9,719.4,576.1,713.2,580.2z M717.8,521.4c-26.8,21.8-51.8,41.4-75.4,59h2
	c23.2-17.4,47.9-36.7,74.1-58.1c6.3-5.1,13.1-10,19.6-14.8c5.7-4.1,11.5-8.3,17.1-12.7c236.1-186.9,411.9-255.9,552.8-278.2v-1.2
	c-141.1,22.3-317.1,91.3-553.6,278.5c-5.5,4.4-11.4,8.6-17,12.7C730.9,511.4,724.1,516.3,717.8,521.4z M1134.2,365.6
	C1015.3,417.5,892.9,488,761.4,580.5h2c130.9-92,252.7-162.2,371.2-213.8c62.3-27.2,119.7-47.5,173.4-63.7v-1.2
	C1254.2,318,1196.7,338.4,1134.2,365.6z M732.3,521.5c-6.5,4.6-13.2,9.4-19.5,14.5c-19.8,16-38.8,30.8-57,44.5h1.9
	c17.8-13.4,36.4-27.9,55.8-43.6c6.2-5,12.9-9.8,19.4-14.4c5.9-4.1,11.9-8.4,17.6-12.9c150.5-118,286.5-197.7,415.8-243.9
	c51.7-18.5,98.9-30.2,141.7-37.7v-1.2c-42.9,7.5-90.3,19.3-142.1,37.7c-129.5,46.3-265.6,126.1-416.1,244.1
	C744.1,513.1,738.1,517.4,732.3,521.5L732.3,521.5z M727.7,536.1c-6.5,4.6-13.3,9.4-19.6,14.4c-13.3,10.5-26.1,20.5-38.5,30h1.9
	c12.1-9.2,24.5-18.9,37.3-29.1c6.4-5,13.1-9.7,19.6-14.3c5.8-4.1,11.8-8.3,17.6-12.8c150.1-116.5,286.1-196.3,415.7-244.1
	c53.3-19.6,102.1-32.4,146.3-40.9v-1.2c-44.3,8.5-93.3,21.3-146.6,41c-129.8,47.8-265.9,127.7-416.1,244.2
	C739.6,527.8,733.5,532,727.7,536.1L727.7,536.1z M717.9,565.6c-6.5,4.4-13.2,8.9-19.4,13.8c-0.5,0.4-0.9,0.7-1.4,1.1h1.9
	c0.1-0.1,0.1-0.1,0.2-0.2c6.2-4.9,12.9-9.4,19.4-13.8c6.1-4.1,12.3-8.4,18.3-12.9C886.4,440,1022.4,360,1152.7,309
	c56.6-22.1,108.2-37.2,155.3-47.9v-1.2c-47.2,10.7-98.9,25.8-155.7,48c-130.4,51-266.5,131.1-416.1,244.8
	C730.2,557.3,724,561.5,717.9,565.6L717.9,565.6z M1308,360.6v-1.3c-123.2,52.2-261.3,116.6-433.3,221.2h2.3
	C1047.9,476.7,1185.4,412.6,1308,360.6L1308,360.6z M703.4,565c-6.8,5.4-13.4,10.5-20,15.6h1.9c6.2-4.8,12.4-9.7,18.8-14.7
	c6.3-5,13.2-9.7,19.8-14.3c5.8-4.1,11.9-8.2,17.6-12.6c149.9-115.1,285.9-195.1,415.8-244.5c54.7-20.7,105.1-34.6,150.7-44.2v-1.2
	c-45.7,9.6-96.3,23.5-151.1,44.3C1026.8,342.8,890.7,422.8,740.8,538c-5.8,4.3-11.8,8.5-17.6,12.5
	C716.6,555.1,709.8,559.9,703.4,565z M1297.4,408.2c-95.2,50.5-197.5,104.7-314.9,172.2h2.3c116.7-67.1,218.4-121,313.1-171.2
	c3.4-1.8,6.8-3.5,10.1-5.3v-1.3C1304.5,404.5,1300.9,406.3,1297.4,408.2z M1308,456.4c-60.9,41.3-123.6,82.3-189.3,124.1h2.2
	c64.9-41.4,126.9-81.9,187.1-122.7V456.4z M1308,463.5c-56.5,39.5-114,78.2-173.2,117h2.1c58.5-38.3,115.2-76.6,171.1-115.6V463.5z
	 M1308,449.1c-65.7,43.2-133.9,86.4-206.3,131.4h2.2c71.6-44.5,139-87.3,204.1-130V449.1z M1308,477.2
	c-47.1,34.8-94.9,69.1-144.4,103.2h2.1c48.7-33.7,95.9-67.5,142.3-101.8V477.2z M1308,470.4c-51,36.7-103.3,73.1-158.3,110.1h2.1
	c54.2-36.4,105.8-72.3,156.2-108.6V470.4z M1308,410.7c-16.1,8.9-32.4,17.8-49,27c-78.6,43.2-162.3,89.2-255.2,142.8h2.3
	c92.2-53.1,175.3-98.8,253.4-141.8c16.5-9.1,32.6-17.9,48.5-26.7V410.7L1308,410.7z M1308,443.2v-1.4
	c-71.1,45.2-145.1,90.7-224.1,138.7h2.2C1164.3,533,1237.6,488,1308,443.2L1308,443.2z M1149,520c-33.4,19.4-67.9,39.5-103.6,60.5
	h2.3c35.1-20.6,69-40.3,101.8-59.5c54.6-31.9,107.3-62.6,158.5-93v-1.4C1256.7,457.1,1203.7,488,1149,520z M1308,434.3
	c-75.5,46.5-154.3,93.4-241.7,145.4c-0.4,0.3-0.9,0.6-1.3,0.8h2.3c87-51.8,165.5-98.5,240.7-144.8V434.3L1308,434.3z"/>
</svg>
