<?xml version="1.0" encoding="UTF-8"?>
<svg version="1.1" xmlns="http://www.w3.org/2000/svg" width="64" height="64">
<path d="M0 0 C2.46784678 0.01611057 4.93405694 0.00001905 7.40185547 -0.01904297 C21.5109198 -0.03785156 35.36961635 1.68224678 48.96826172 5.57861328 C49.69843506 5.78655518 50.4286084 5.99449707 51.1809082 6.20874023 C68.64939023 11.42892705 84.0104378 20.68795103 99.2890625 30.40112305 C115.68867322 40.79949756 132.05355434 47.52067281 151.84326172 43.39111328 C163.25756554 40.11911337 173.37392225 33.89066676 183.28076172 27.51611328 C208.05655128 11.60726368 234.63656628 0.45791493 264.50732422 0.15283203 C265.30244919 0.14303818 266.09757416 0.13324432 266.91679382 0.12315369 C283.90570246 -0.04309287 300.46421728 -0.18695605 316.96826172 4.39111328 C317.75346191 4.60541992 318.53866211 4.81972656 319.34765625 5.04052734 C330.53284487 8.20080889 340.78187262 12.84344057 350.96826172 18.39111328 C352.04978516 18.96861328 353.13130859 19.54611328 354.24560547 20.14111328 C361.49147521 24.16970495 367.73824963 28.9398527 373.96826172 34.39111328 C374.94794922 35.22513672 375.92763672 36.05916016 376.93701172 36.91845703 C396.43490892 53.83866613 409.08677951 76.43279203 416.28076172 101.01611328 C416.64463989 102.249021 416.64463989 102.249021 417.01586914 103.50683594 C435.14529947 168.75740491 400.90711273 239.53938894 370.28076172 295.29736328 C350.11734389 332.23452799 344.47930641 371.25029396 343.58102417 412.80184937 C342.36037571 468.09418604 323.07235108 513.21034835 292.84326172 558.82861328 C292.4278714 559.45728302 292.01248108 560.08595276 291.58450317 560.7336731 C282.67181767 574.18935522 273.10034043 586.68436974 261.96826172 598.39111328 C261.21802734 599.21740234 260.46779297 600.04369141 259.69482422 600.89501953 C253.44102338 607.56649299 244.78736819 614.7748681 235.33154297 615.62939453 C227.54150124 615.81890899 222.27643012 615.07810391 216.28857422 609.95361328 C204.90541948 598.17403027 205.58802172 579.10447019 205.65576172 563.82861328 C205.65691986 563.01808502 205.658078 562.20755676 205.65927124 561.37246704 C205.7008987 546.55291088 206.90005615 532.06982059 208.96826172 517.39111328 C213.88469333 482.10169309 214.58693513 446.53230133 192.15576172 416.70361328 C180.19695751 401.41698707 164.2417702 392.10852701 144.96826172 389.39111328 C127.84664004 387.96819922 111.0729931 393.19881461 97.67919922 403.93408203 C84.23010558 415.39421045 75.21566189 430.13229854 70.15576172 446.95361328 C69.96079102 447.60096436 69.76582031 448.24831543 69.56494141 448.9152832 C66.60992295 459.48064682 65.55519663 470.26386921 65.53076172 481.20361328 C65.52761963 482.41267334 65.52447754 483.6217334 65.52124023 484.86743164 C65.70323792 499.53059198 67.77649503 513.9827786 69.77685547 528.48876953 C73.0947079 552.59270834 77.72226923 586.52923265 63.21826172 607.89111328 C59.2534676 612.62519581 55.24459751 614.9620161 49.10498047 615.76611328 C36.21435027 616.29025581 27.19898835 609.78501079 17.80810547 601.48095703 C12.36515469 596.21114187 7.65722366 590.32838456 2.96826172 584.39111328 C2.16259766 583.37919922 1.35693359 582.36728516 0.52685547 581.32470703 C-5.79092434 573.30952058 -11.50030653 564.96321512 -17.03173828 556.39111328 C-17.49837891 555.67181641 -17.96501953 554.95251953 -18.44580078 554.21142578 C-48.18575025 508.24968569 -65.26364144 463.28500342 -66.32177734 408.21655273 C-67.28309754 358.51206157 -79.65952573 317.70789548 -103.62548828 274.49267578 C-123.70362677 238.08431798 -142.97746797 192.70461098 -143.23486328 150.43017578 C-143.24056335 149.68134125 -143.24626343 148.93250671 -143.25213623 148.16098022 C-143.26153573 146.57933947 -143.26809998 144.99767957 -143.27197266 143.41601562 C-143.28157158 141.05708064 -143.31259742 138.69905925 -143.34423828 136.34033203 C-143.44567701 122.03335021 -141.57753209 108.39720587 -136.84423828 94.82861328 C-136.54380615 93.95148682 -136.24337402 93.07436035 -135.93383789 92.1706543 C-123.43222542 56.78855015 -97.60316335 29.59477949 -64.05517578 13.44970703 C-43.69997304 3.98409825 -22.38591372 -0.17291555 0 0 Z M-90.03173828 54.39111328 C-91.11068359 55.3753125 -91.11068359 55.3753125 -92.21142578 56.37939453 C-113.35909127 76.21063907 -123.88981815 106.23904488 -125.34814453 134.63720703 C-127.02487564 187.31133367 -102.38332753 237.52215679 -78.19970703 282.68798828 C-57.26901064 321.82783994 -48.52571054 362.08224154 -47.74194336 406.34155273 C-47.08399549 443.2571817 -40.48931049 476.5816547 -23.06494141 509.43554688 C-22.3876595 510.71745333 -21.71933201 512.00413987 -21.06103516 513.29589844 C-15.21854279 524.75728877 -8.20203474 535.43885204 -1.09423828 546.14111328 C-0.40089386 547.18971024 -0.40089386 547.18971024 0.30645752 548.25949097 C18.54783977 577.6820399 18.54783977 577.6820399 45.28466797 597.09814453 C45.84025391 597.19482422 46.39583984 597.29150391 46.96826172 597.39111328 C54.52343333 588.49770267 53.4930142 574.71160749 53.40576172 563.64111328 C53.40404968 562.86808868 53.40233765 562.09506409 53.40057373 561.2986145 C53.34172681 545.6379269 51.64339729 530.34799275 49.45556641 514.86181641 C44.08414443 476.60523582 46.47275965 437.62188644 70.12841797 405.45361328 C84.10036367 387.71146001 104.28620241 374.43069836 126.96826172 371.39111328 C152.52368073 369.27964624 173.92670685 375.24831748 193.96826172 391.39111328 C194.94794922 392.16197266 195.92763672 392.93283203 196.93701172 393.72705078 C216.49982363 410.16243197 226.84224271 438.19906895 229.75878906 462.87866211 C230.25838704 468.87092641 230.30637144 474.88146423 230.34326172 480.89111328 C230.35110184 482.01445572 230.35110184 482.01445572 230.35910034 483.16049194 C230.41325944 500.25341807 228.21860097 516.93326319 225.83143616 533.82730103 C221.33534786 566.04711284 221.33534786 566.04711284 229.96826172 596.39111328 C230.62826172 596.72111328 231.28826172 597.05111328 231.96826172 597.39111328 C242.85312068 593.17984649 250.71246677 584.02885872 257.67138672 575.05908203 C259.0913892 573.23275353 260.5301837 571.42198684 261.96826172 569.60986328 C299.14510353 522.32477126 324.16828854 470.51528379 325.25830078 409.7824707 C325.81199345 379.0058258 328.53578984 348.57652034 338.96826172 319.39111328 C339.21318359 318.69147461 339.45810547 317.99183594 339.71044922 317.27099609 C345.78837764 300.20315007 354.49745679 284.35622046 362.96826172 268.39111328 C363.48275879 267.42125488 363.99725586 266.45139648 364.52734375 265.45214844 C364.98351074 264.59282715 365.43967773 263.73350586 365.90966797 262.84814453 C391.13815231 215.32204761 413.20391208 157.1206979 397.51123047 103.13720703 C387.98487959 72.63655693 366.63560739 47.73031782 338.65576172 32.57861328 C306.37636907 15.76319872 265.88816877 13.58442463 231.27441406 24.14746094 C216.92224199 28.8931827 204.16548039 36.28556445 191.53466797 44.45751953 C170.19972817 58.2444878 148.40104782 66.78231861 122.47607422 61.70751953 C104.83239174 57.20658012 89.32974012 46.67368676 74.0234375 37.18554688 C22.97465217 5.59867088 -47.10277715 12.99096131 -90.03173828 54.39111328 Z " fill="#000000" transform="translate(143.03173828125,-0.39111328125)"/>
<path d="M0 0 C3.1878483 3.2656007 4 4.9923195 4 9.5625 C2.32869747 15.30760246 -1.41015062 18.54703911 -6 22.1875 C-8.9564393 24.54797723 -11.89280044 26.90724577 -14.75390625 29.3828125 C-49.44335312 59.39232009 -89.43050353 73.18671106 -135 71 C-141.13463646 70.53554803 -147.03948737 69.50568556 -153 68 C-153.78987305 67.80132324 -154.57974609 67.60264648 -155.39355469 67.39794922 C-177.0884606 61.75219885 -197.6103889 51.963598 -216.375 39.75 C-216.99979248 39.34990723 -217.62458496 38.94981445 -218.26831055 38.53759766 C-221.85974574 36.12665507 -224.22697261 33.97490979 -226 30 C-225.93220153 26.1354873 -225.56576361 23.82688528 -223.375 20.625 C-220.06405452 18.35961625 -218.03605756 18.06820376 -214 18 C-210.66708192 19.38433746 -207.75635697 21.33047454 -204.75 23.3125 C-202.97123326 24.42974464 -201.18991866 25.54294175 -199.40625 26.65234375 C-198.50648438 27.21550293 -197.60671875 27.77866211 -196.6796875 28.35888672 C-165.22635681 47.62175925 -128.66664755 57.50155377 -92.0546875 48.8828125 C-67.14677294 42.54449131 -45.32276721 29.77957038 -26 13 C-24.15286945 11.3979863 -22.30477445 9.7971399 -20.45410156 8.19921875 C-19.22130356 7.13253344 -17.99256589 6.06113172 -16.76855469 4.984375 C-11.30986512 0.23659911 -7.34810579 -2.5545562 0 0 Z " fill="#000000" transform="translate(344,66)"/>
</svg>
