<?xml version="1.0" encoding="UTF-8"?>
<svg version="1.1" xmlns="http://www.w3.org/2000/svg" width="50" height="50">
<path d="M0 0 C7.92 0 15.84 0 24 0 C24 3.96 24 7.92 24 12 C24.33 9.69 24.66 7.38 25 5 C25.99 5 26.98 5 28 5 C28.495 9.95 28.495 9.95 29 15 C30.32 15 31.64 15 33 15 C33 16.32 33 17.64 33 19 C33.66 19 34.32 19 35 19 C35 28.24 35 37.48 35 47 C35.66 47 36.32 47 37 47 C37 47.99 37 48.98 37 50 C20.5 50 4 50 -13 50 C-13 49.01 -13 48.02 -13 47 C-12.34 47 -11.68 47 -11 47 C-11 40.07 -11 33.14 -11 26 C-10.34 26 -9.68 26 -9 26 C-9 25.01 -9 24.02 -9 23 C-6.03 23 -3.06 23 0 23 C0 15.41 0 7.82 0 0 Z " fill="#F6C160" transform="translate(13,0)"/>
<path d="M0 0 C2.97 0 5.94 0 9 0 C9.33 0.99 9.66 1.98 10 3 C13.3 3.33 16.6 3.66 20 4 C20 5.65 20 7.3 20 9 C20.99 9 21.98 9 23 9 C23 10.32 23 11.64 23 13 C22.01 13 21.02 13 20 13 C20 14.65 20 16.3 20 18 C20.99 18 21.98 18 23 18 C23 19.32 23 20.64 23 22 C22.01 22 21.02 22 20 22 C20 22.99 20 23.98 20 25 C12.74 25 5.48 25 -2 25 C-2 17.74 -2 10.48 -2 3 C-1.34 3 -0.68 3 0 3 C0 2.01 0 1.02 0 0 Z " fill="#79BAF5" transform="translate(4,23)"/>
<path d="M0 0 C0.99 0 1.98 0 3 0 C3.495 4.95 3.495 4.95 4 10 C5.32 10 6.64 10 8 10 C8 11.32 8 12.64 8 14 C8.66 14 9.32 14 10 14 C10 23.24 10 32.48 10 42 C10.66 42 11.32 42 12 42 C12 42.99 12 43.98 12 45 C-4.5 45 -21 45 -38 45 C-38 44.01 -38 43.02 -38 42 C-30.08 42.33 -22.16 42.66 -14 43 C-13.67 42.01 -13.34 41.02 -13 40 C-13 40.66 -13 41.32 -13 42 C-9.7 42 -6.4 42 -3 42 C-3 41.34 -3 40.68 -3 40 C0.3 40 3.6 40 7 40 C7 39.01 7 38.02 7 37 C3.7 37 0.4 37 -3 37 C-3 36.01 -3 35.02 -3 34 C0.3 34 3.6 34 7 34 C7 33.01 7 32.02 7 31 C3.7 31 0.4 31 -3 31 C-3 30.01 -3 29.02 -3 28 C0.3 28 3.6 28 7 28 C7 27.01 7 26.02 7 25 C3.7 25 0.4 25 -3 25 C-3 24.01 -3 23.02 -3 22 C0.3 22 3.6 22 7 22 C7 21.01 7 20.02 7 19 C3.7 19 0.4 19 -3 19 C-3.26247689 11.12569316 -3.26247689 11.12569316 -1 7 C-0.61250787 4.67504723 -0.27017161 2.34148732 0 0 Z " fill="#EB4440" transform="translate(38,5)"/>
<path d="M0 0 C2 2 2 2 2.1953125 3.9453125 C2.13020833 5.96354167 2.06510417 7.98177083 2 10 C5.3 10 8.6 10 12 10 C12 10.99 12 11.98 12 13 C8.7 13 5.4 13 2 13 C2 13.99 2 14.98 2 16 C5.3 16 8.6 16 12 16 C12 16.99 12 17.98 12 19 C8.7 19 5.4 19 2 19 C2 19.99 2 20.98 2 22 C5.3 22 8.6 22 12 22 C12 22.99 12 23.98 12 25 C8.7 25 5.4 25 2 25 C2 25.99 2 26.98 2 28 C5.3 28 8.6 28 12 28 C12 28.99 12 29.98 12 31 C8.7 31 5.4 31 2 31 C2 31.66 2 32.32 2 33 C-1.3 33 -4.6 33 -8 33 C-8 32.34 -8 31.68 -8 31 C-7.34 31 -6.68 31 -6 31 C-6 29.68 -6 28.36 -6 27 C-6.99 27 -7.98 27 -9 27 C-9 25.35 -9 23.7 -9 22 C-8.34 22.66 -7.68 23.32 -7 24 C-4.8614515 21.8614515 -4.57344937 20.86724686 -4 18 C-3.34 18 -2.68 18 -2 18 C-2 16.68 -2 15.36 -2 14 C-1.34 14 -0.68 14 0 14 C0 12.35 0 10.7 0 9 C-0.66 9 -1.32 9 -2 9 C-2 7.68 -2 6.36 -2 5 C-1.34 5 -0.68 5 0 5 C0 3.35 0 1.7 0 0 Z " fill="#FE9120" transform="translate(33,14)"/>
<path d="M0 0 C7.92 0 15.84 0 24 0 C23.67 5.28 23.34 10.56 23 16 C22.34 16 21.68 16 21 16 C21 15.34 21 14.68 21 14 C20.01 14 19.02 14 18 14 C18 12.68 18 11.36 18 10 C18.66 10 19.32 10 20 10 C20 8.35 20 6.7 20 5 C17.40742331 4.13580777 15.65962293 3.82419068 12.98828125 3.68359375 C11.85229492 3.62075195 11.85229492 3.62075195 10.69335938 3.55664062 C9.51483398 3.49766602 9.51483398 3.49766602 8.3125 3.4375 C7.51521484 3.39431641 6.71792969 3.35113281 5.89648438 3.30664062 C3.93118553 3.20072632 1.96561504 3.09987449 0 3 C0 2.01 0 1.02 0 0 Z " fill="#FE921E" transform="translate(13,0)"/>
<path d="M0 0 C16.5 0 33 0 50 0 C50 0.99 50 1.98 50 3 C33.5 3 17 3 0 3 C0 2.01 0 1.02 0 0 Z " fill="#254F64" transform="translate(0,47)"/>
<path d="M0 0 C1.32 0 2.64 0 4 0 C4 1.65 4 3.3 4 5 C3.34 5 2.68 5 2 5 C2 6.32 2 7.64 2 9 C2.66 9 3.32 9 4 9 C4 10.32 4 11.64 4 13 C2.35 12.67 0.7 12.34 -1 12 C-1 11.01 -1 10.02 -1 9 C-2.32 9 -3.64 9 -5 9 C-5 7.35 -5 5.7 -5 4 C-4.34 4.66 -3.68 5.32 -3 6 C-0.8614515 3.8614515 -0.57344937 2.86724686 0 0 Z " fill="#EEC67D" transform="translate(29,32)"/>
<path d="M0 0 C0.33 0 0.66 0 1 0 C1 1.65 1 3.3 1 5 C1.99 5 2.98 5 4 5 C4 6.32 4 7.64 4 9 C3.01 9 2.02 9 1 9 C1 9.99 1 10.98 1 12 C-6.26 12 -13.52 12 -21 12 C-21 11.67 -21 11.34 -21 11 C-11.1 10.505 -11.1 10.505 -1 10 C-1.66 8.02 -2.32 6.04 -3 4 C-2.34 4 -1.68 4 -1 4 C-0.67 2.68 -0.34 1.36 0 0 Z " fill="#6CA7DD" transform="translate(23,36)"/>
<path d="M0 0 C0.66 0.99 1.32 1.98 2 3 C4.05003955 4.19232613 4.05003955 4.19232613 6 5 C5.34 5 4.68 5 4 5 C4 6.32 4 7.64 4 9 C3.34 9 2.68 9 2 9 C1.896875 9.78375 1.79375 10.5675 1.6875 11.375 C1 14 1 14 -2 16 C-2 15.01 -2 14.02 -2 13 C-1.34 13 -0.68 13 0 13 C0 11.68 0 10.36 0 9 C-0.99 9 -1.98 9 -3 9 C-3 7.35 -3 5.7 -3 4 C-2.01 4 -1.02 4 0 4 C0 2.68 0 1.36 0 0 Z " fill="#F9B132" transform="translate(27,23)"/>
<path d="M0 0 C0.99 0 1.98 0 3 0 C3.33 3.63 3.66 7.26 4 11 C2.02 11.33 0.04 11.66 -2 12 C-1.855625 11.319375 -1.71125 10.63875 -1.5625 9.9375 C-0.93054091 6.63726918 -0.45686059 3.32855574 0 0 Z " fill="#F54355" transform="translate(38,5)"/>
<path d="M0 0 C2.97 0.495 2.97 0.495 6 1 C6 2.32 6 3.64 6 5 C5.360625 5.103125 4.72125 5.20625 4.0625 5.3125 C3.381875 5.539375 2.70125 5.76625 2 6 C1.67 6.99 1.34 7.98 1 9 C-0.32 9 -1.64 9 -3 9 C-2.67 7.02 -2.34 5.04 -2 3 C-1.34 3 -0.68 3 0 3 C0 2.01 0 1.02 0 0 Z " fill="#99C5ED" transform="translate(21,31)"/>
<path d="M0 0 C0.33 0.99 0.66 1.98 1 3 C2.98 3 4.96 3 7 3 C7.33 4.65 7.66 6.3 8 8 C5.36 8 2.72 8 0 8 C0 5.36 0 2.72 0 0 Z " fill="#FC5048" transform="translate(35,16)"/>
<path d="M0 0 C2.97 0 5.94 0 9 0 C8.67 1.65 8.34 3.3 8 5 C5.36 4.67 2.72 4.34 0 4 C0 2.68 0 1.36 0 0 Z " fill="#51A1EA" transform="translate(4,23)"/>
<path d="M0 0 C3.3 0 6.6 0 10 0 C10 0.99 10 1.98 10 3 C6.7 3 3.4 3 0 3 C0 2.01 0 1.02 0 0 Z " fill="#E6CACE" transform="translate(35,42)"/>
<path d="M0 0 C3.3 0 6.6 0 10 0 C10 0.99 10 1.98 10 3 C6.7 3 3.4 3 0 3 C0 2.01 0 1.02 0 0 Z " fill="#E6CBD0" transform="translate(35,36)"/>
<path d="M0 0 C3.3 0 6.6 0 10 0 C10 0.99 10 1.98 10 3 C6.7 3 3.4 3 0 3 C0 2.01 0 1.02 0 0 Z " fill="#E6CCD1" transform="translate(35,30)"/>
<path d="M0 0 C3.3 0 6.6 0 10 0 C10 0.99 10 1.98 10 3 C6.7 3 3.4 3 0 3 C0 2.01 0 1.02 0 0 Z " fill="#E6CCD1" transform="translate(35,24)"/>
<path d="M0 0 C2.64 0 5.28 0 8 0 C8 0.99 8 1.98 8 3 C5.36 3 2.72 3 0 3 C0 2.01 0 1.02 0 0 Z " fill="#FD544F" transform="translate(35,39)"/>
<path d="M0 0 C2.64 0 5.28 0 8 0 C8 0.99 8 1.98 8 3 C5.36 3 2.72 3 0 3 C0 2.01 0 1.02 0 0 Z " fill="#FD534E" transform="translate(35,33)"/>
<path d="M0 0 C2.64 0 5.28 0 8 0 C8 0.99 8 1.98 8 3 C5.36 3 2.72 3 0 3 C0 2.01 0 1.02 0 0 Z " fill="#FD534E" transform="translate(35,27)"/>
<path d="M0 0 C0.99 0 1.98 0 3 0 C3 2.31 3 4.62 3 7 C2.01 7 1.02 7 0 7 C0 4.69 0 2.38 0 0 Z " fill="#2C5872" transform="translate(38,5)"/>
<path d="M0 0 C0.66 0.99 1.32 1.98 2 3 C4.05003955 4.19232613 4.05003955 4.19232613 6 5 C3.29120665 6.35439668 0.99066732 6.06501451 -2 6 C-2 5.34 -2 4.68 -2 4 C-1.34 4 -0.68 4 0 4 C0 2.68 0 1.36 0 0 Z " fill="#FDB12E" transform="translate(27,41)"/>
</svg>
