<?xml version="1.0" encoding="UTF-8"?>
<svg version="1.1" xmlns="http://www.w3.org/2000/svg" width="50" height="50">
<path d="M0 0 C3.9567266 1.62812673 6.80334468 4.36013358 9.875 7.25 C10.66910278 7.99262085 10.66910278 7.99262085 11.47924805 8.75024414 C12.52082417 9.72677182 13.56052333 10.70530616 14.59814453 11.68603516 C15.76647354 12.7811147 16.95682788 13.85263609 18.15234375 14.91796875 C19.8125 16.4375 19.8125 16.4375 22 19 C21.63671875 21.16015625 21.63671875 21.16015625 21 23 C19.35 22.67 17.7 22.34 16 22 C15.67 25.63 15.34 29.26 15 33 C15.886875 32.34 16.77375 31.68 17.6875 31 C20.98111986 29.01139933 22.28251873 28.56264926 26 29 C26.296875 31.703125 26.296875 31.703125 26 35 C23.953125 37.484375 23.953125 37.484375 21.25 39.75 C20.36828125 40.50796875 19.4865625 41.2659375 18.578125 42.046875 C14.14535158 45.40503668 10.71776569 46.39061448 5.1875 47.1875 C4.00542969 47.36667969 2.82335937 47.54585937 1.60546875 47.73046875 C-2.97228938 48.07268469 -7.14178664 47.90399569 -11.3125 45.875 C-15.12396859 44.43457765 -15.12396859 44.43457765 -24 46 C-24 38.41 -24 30.82 -24 23 C-22.68 22.67 -21.36 22.34 -20 22 C-19.9175 21.236875 -19.835 20.47375 -19.75 19.6875 C-19 17 -19 17 -17 15.75 C-14.50380822 13.56583219 -14.62287475 12.6008622 -14.3125 9.375 C-14.26738281 8.57835937 -14.22226563 7.78171875 -14.17578125 6.9609375 C-14 5 -14 5 -13 4 C-11.00045254 3.95745644 -8.99958364 3.95919217 -7 4 C-3.86676575 4 -2.31979216 1.95350919 0 0 Z M-16.5625 22.5 C-17.036875 22.995 -17.51125 23.49 -18 24 C-17.67 24.66 -17.34 25.32 -17 26 C-16.01 26 -15.02 26 -14 26 C-14 24.35 -14 22.7 -14 21 C-15.24076302 20.88457803 -15.24076302 20.88457803 -16.5625 22.5 Z " fill="#FCD7A6" transform="translate(24,1)"/>
<path d="M0 0 C5.99891163 2.59952837 11.73439184 7.27078092 15 13 C16.37237131 18.25304204 15.93132628 23.70581636 15 29 C14.34 29.66 13.68 30.32 13 31 C11.68 31 10.36 31 9 31 C8.67 30.01 8.34 29.02 8 28 C7.01 27.34 6.02 26.68 5 26 C4.70703125 23.3984375 4.70703125 23.3984375 4.8125 20.375 C4.83957031 19.37210938 4.86664062 18.36921875 4.89453125 17.3359375 C4.92933594 16.56507812 4.96414062 15.79421875 5 15 C2.36 15 -0.28 15 -3 15 C-3 18.3 -3 21.6 -3 25 C-7.12751449 24.39301257 -10.3321148 22.96189209 -14 21 C-14.53789272 17.3115928 -14.74360539 15.15303097 -12.6875 11.96484375 C-8.84946221 7.51854551 -4.5428938 3.70848474 0 0 Z " fill="#DEEAF6" transform="translate(24,7)"/>
<path d="M0 0 C3.9567266 1.62812673 6.80334468 4.36013358 9.875 7.25 C10.66910278 7.99262085 10.66910278 7.99262085 11.47924805 8.75024414 C12.52082417 9.72677182 13.56052333 10.70530616 14.59814453 11.68603516 C15.76647354 12.7811147 16.95682788 13.85263609 18.15234375 14.91796875 C19.8125 16.4375 19.8125 16.4375 22 19 C21.63671875 21.16015625 21.63671875 21.16015625 21 23 C16.24431437 22.56462033 14.51991507 20.84412427 11.5 17.25 C10.72785156 16.35023437 9.95570312 15.45046875 9.16015625 14.5234375 C8.09087891 13.27433594 8.09087891 13.27433594 7 12 C5.36852515 10.2894005 3.69879502 8.64399518 2 7 C-1.54498126 8.53916046 -4.08258802 10.66342335 -6.9375 13.25 C-7.77152344 13.99765625 -8.60554687 14.7453125 -9.46484375 15.515625 C-10.71974609 16.74539062 -10.71974609 16.74539062 -12 18 C-12.92425781 18.86496094 -13.84851563 19.72992187 -14.80078125 20.62109375 C-18.21635381 24.81880231 -17.50211285 29.66869762 -17.25 34.8125 C-17.18908799 36.71473127 -17.1316023 38.61707645 -17.078125 40.51953125 C-17.04106445 41.35589111 -17.00400391 42.19225098 -16.96582031 43.05395508 C-17 45 -17 45 -18 46 C-19.98 46 -21.96 46 -24 46 C-24 38.41 -24 30.82 -24 23 C-22.68 22.67 -21.36 22.34 -20 22 C-19.9175 21.236875 -19.835 20.47375 -19.75 19.6875 C-19 17 -19 17 -17 15.75 C-14.50380822 13.56583219 -14.62287475 12.6008622 -14.3125 9.375 C-14.26738281 8.57835937 -14.22226563 7.78171875 -14.17578125 6.9609375 C-14 5 -14 5 -13 4 C-11.00045254 3.95745644 -8.99958364 3.95919217 -7 4 C-3.86676575 4 -2.31979216 1.95350919 0 0 Z " fill="#FA4C4C" transform="translate(24,1)"/>
<path d="M0 0 C0.33 0 0.66 0 1 0 C1 3.63 1 7.26 1 11 C11.25172668 14.28055254 21.37836889 15.34844145 32 13 C35.14858057 10.99110839 35.14858057 10.99110839 37.9375 8.4375 C38.89527344 7.61121094 39.85304687 6.78492188 40.83984375 5.93359375 C41.55269531 5.29550781 42.26554687 4.65742187 43 4 C43.495 5.98 43.495 5.98 44 8 C42.42173185 9.46381359 40.83717771 10.92085163 39.25 12.375 C38.36828125 13.18710937 37.4865625 13.99921875 36.578125 14.8359375 C32.2213663 18.49297434 28.82104196 19.37573285 23.1875 20.1875 C21.41439453 20.45626953 21.41439453 20.45626953 19.60546875 20.73046875 C12.02906052 21.29685246 6.69125027 19.19121167 0 16 C0 10.72 0 5.44 0 0 Z " fill="#F0C692" transform="translate(6,28)"/>
<path d="M0 0 C1.98 0 3.96 0 6 0 C6.8040612 2.83178058 7.12824903 5.35246583 7.1328125 8.29296875 C7.13410156 9.08767578 7.13539063 9.88238281 7.13671875 10.70117188 C7.13285156 11.52166016 7.12898437 12.34214844 7.125 13.1875 C7.12886719 14.01958984 7.13273438 14.85167969 7.13671875 15.70898438 C7.12667092 21.87332908 7.12667092 21.87332908 6 23 C4.02 23 2.04 23 0 23 C0 15.41 0 7.82 0 0 Z " fill="#1F4A5B" transform="translate(0,24)"/>
<path d="M0 0 C5.99891163 2.59952837 11.73439184 7.27078092 15 13 C16.37237131 18.25304204 15.93132628 23.70581636 15 29 C14.34 29.66 13.68 30.32 13 31 C10.875 30.625 10.875 30.625 9 30 C9.0928125 28.70964844 9.185625 27.41929688 9.28125 26.08984375 C10.10203986 16.80547066 10.10203986 16.80547066 7.2890625 8.28515625 C5.27111502 6.6205317 3.24284481 5.33309652 1 4 C0.34 3.01 -0.32 2.02 -1 1 C-0.67 0.67 -0.34 0.34 0 0 Z " fill="#CEDCE9" transform="translate(24,7)"/>
<path d="M0 0 C2.64 0 5.28 0 8 0 C8 3.63 8 7.26 8 11 C5.36 10.67 2.72 10.34 0 10 C0 6.7 0 3.4 0 0 Z " fill="#3A6175" transform="translate(21,22)"/>
<path d="M0 0 C0.66 0 1.32 0 2 0 C3.20029908 2.40059817 3.11459743 3.89360649 3.09765625 6.5703125 C3.09443359 7.46621094 3.09121094 8.36210938 3.08789062 9.28515625 C3.07951172 10.22230469 3.07113281 11.15945312 3.0625 12.125 C3.05798828 13.06988281 3.05347656 14.01476563 3.04882812 14.98828125 C3.03702357 17.32558387 3.02055759 19.66276061 3 22 C2.01 22.33 1.02 22.66 0 23 C0 15.41 0 7.82 0 0 Z " fill="#2C5770" transform="translate(0,24)"/>
<path d="M0 0 C0 4.13781054 -1.71509607 5.20919996 -4.5 8.1875 C-5.3353125 9.08855469 -6.170625 9.98960938 -7.03125 10.91796875 C-8.00578125 11.94857422 -8.00578125 11.94857422 -9 13 C-10.32 12.67 -11.64 12.34 -13 12 C-12.70820766 8.49849196 -12.21713533 7.21713533 -9.6875 4.6875 C-7 3 -7 3 -3 3 C-1.2488427 1.5833253 -1.2488427 1.5833253 0 0 Z " fill="#FA4747" transform="translate(17,11)"/>
<path d="M0 0 C1.4540625 0.0309375 1.4540625 0.0309375 2.9375 0.0625 C2.46104792 4.35056873 1.27847516 6.32897487 -2.0625 9.0625 C-2.7225 9.0625 -3.3825 9.0625 -4.0625 9.0625 C-4.16015625 2.91015625 -4.16015625 2.91015625 -4.0625 1.0625 C-3.0625 0.0625 -3.0625 0.0625 0 0 Z " fill="#FFA422" transform="translate(14.0625,4.9375)"/>
<path d="M0 0 C0.99 0 1.98 0 3 0 C3 2.97 3 5.94 3 9 C2.01 9 1.02 9 0 9 C0 6.03 0 3.06 0 0 Z " fill="#1C4758" transform="translate(25,23)"/>
<path d="M0 0 C2.31 0.33 4.62 0.66 7 1 C6.67 2.32 6.34 3.64 6 5 C4.35 4.67 2.7 4.34 1 4 C0.67 2.68 0.34 1.36 0 0 Z " fill="#F43737" transform="translate(39,19)"/>
<path d="M0 0 C0.33 0.99 0.66 1.98 1 3 C0.34 3.66 -0.32 4.32 -1 5 C-3.125 4.625 -3.125 4.625 -5 4 C-4.67 3.01 -4.34 2.02 -4 1 C-1.9375 0.3125 -1.9375 0.3125 0 0 Z " fill="#F33939" transform="translate(9,19)"/>
</svg>
