<!DOCTYPE svg PUBLIC "-//W3C//DTD SVG 1.1//EN" "http://www.w3.org/Graphics/SVG/1.1/DTD/svg11.dtd">
<!-- Uploaded to: SVG Repo, www.svgrepo.com, Transformed by: SVG Repo Mixer Tools -->
<svg height="64px" width="64px" version="1.1" id="Layer_1" xmlns="http://www.w3.org/2000/svg" xmlns:xlink="http://www.w3.org/1999/xlink" viewBox="0 0 512 512" xml:space="preserve" fill="#000000">
<g id="SVGRepo_bgCarrier" stroke-width="0"/>
<g id="SVGRepo_tracerCarrier" stroke-linecap="round" stroke-linejoin="round"/>
<g id="SVGRepo_iconCarrier"> <polygon style="fill:#F0C838;" points="436.521,125.085 436.521,42.192 356.619,42.192 356.619,84.742 256,33.937 0,163.196 36.399,235.283 75.48,215.55 75.48,478.063 200.927,478.063 200.927,375.256 311.074,375.256 311.074,478.063 436.521,478.063 436.521,215.551 475.602,235.283 512,163.196 "/> <polygon style="fill:#E79C25;" points="436.521,125.085 436.521,42.192 356.619,42.192 356.619,84.742 256,33.937 255.879,375.256 311.074,375.256 311.074,478.063 436.521,478.063 436.521,215.551 475.602,235.283 512,163.196 "/> </g>
</svg>