<svg width="131" height="38" viewBox="0 0 131 38" fill="none" xmlns="http://www.w3.org/2000/svg">
<path d="M20.8783 26.7113L17.5565 36.8967V36.8815C17.4958 37.0331 17.4098 37.1594 17.2986 37.2604C17.1975 37.3514 17.0711 37.3969 16.9194 37.3969C16.8385 37.3969 16.7576 37.3868 16.6767 37.3665C16.6059 37.3564 16.5301 37.3413 16.4492 37.3211H16.4644C15.888 37.1392 15.6756 36.8158 15.8273 36.351L19.2856 25.8474C19.3362 25.6857 19.4222 25.5493 19.5435 25.4381C19.675 25.327 19.8266 25.2613 19.9985 25.2411C20.1704 25.2108 20.3373 25.1906 20.4991 25.1805C20.6609 25.1603 20.7873 25.1501 20.8783 25.1501C20.9693 25.1501 21.0957 25.1603 21.2575 25.1805C21.4193 25.1906 21.5861 25.2057 21.758 25.2259C21.8996 25.2461 22.0361 25.3219 22.1676 25.4533C22.3092 25.5846 22.4153 25.716 22.4861 25.8474C23.0524 27.5853 23.6237 29.3385 24.2001 31.1068C24.7866 32.865 25.363 34.6131 25.9293 36.351C26.0709 36.8158 25.8585 37.1392 25.2922 37.3211C25.2113 37.3413 25.1355 37.3564 25.0647 37.3665C25.004 37.3868 24.9332 37.3969 24.8523 37.3969C24.7108 37.3969 24.5793 37.3514 24.458 37.2604C24.3467 37.1594 24.2658 37.0331 24.2153 36.8815V36.8967L20.8783 26.7113ZM22.0159 33.6228C22.0159 33.9462 21.8996 34.224 21.667 34.4564C21.4446 34.6787 21.1715 34.7899 20.848 34.7899C20.5244 34.7899 20.2513 34.6787 20.0289 34.4564C19.8064 34.224 19.6952 33.9462 19.6952 33.6228C19.6952 33.2995 19.8064 33.0266 20.0289 32.8043C20.2513 32.5719 20.5244 32.4557 20.848 32.4557C21.1715 32.4557 21.4446 32.5719 21.667 32.8043C21.8996 33.0266 22.0159 33.2995 22.0159 33.6228Z" fill="black"/>
<path d="M29.1532 36.6239C29.1532 37.1089 28.8499 37.3514 28.2431 37.3514C27.6465 37.3514 27.3482 37.1089 27.3482 36.6239V25.8777C27.3482 25.3927 27.6465 25.1501 28.2431 25.1501C28.8499 25.1501 29.1532 25.3927 29.1532 25.8777V36.6239Z" fill="black"/>
<path d="M35.8758 32.2739H34.7078C34.5359 32.2739 34.3994 32.2082 34.2983 32.0768C34.2073 31.9354 34.1618 31.7484 34.1618 31.516C34.1618 31.0007 34.3741 30.743 34.7988 30.743H36.5735C36.9477 30.743 37.2106 30.6369 37.3623 30.4247C37.5139 30.2125 37.5898 29.9801 37.5898 29.7275V27.7723C37.5898 27.5197 37.5139 27.2873 37.3623 27.0751C37.2106 26.8629 36.9477 26.7568 36.5735 26.7568H33.373V36.639C33.373 37.124 33.0747 37.3665 32.4781 37.3665C31.8815 37.3665 31.5832 37.124 31.5832 36.639V26.1353C31.5832 25.7716 31.6742 25.5291 31.8562 25.4078C32.0484 25.2866 32.2759 25.2259 32.5388 25.2259H36.9527C37.2156 25.2259 37.4887 25.2815 37.7718 25.3927C38.0549 25.5038 38.328 25.6453 38.5909 25.817H38.5757C38.8386 26.009 39.0409 26.2616 39.1824 26.5749C39.324 26.878 39.3948 27.2317 39.3948 27.6359V29.8488C39.3948 30.6672 39.1218 31.2786 38.5757 31.6827C38.4645 31.7636 38.3431 31.8394 38.2117 31.9101C38.0903 31.9808 37.9639 32.0516 37.8325 32.1223L40.2594 36.1237C40.2897 36.1742 40.32 36.2399 40.3504 36.3207C40.3807 36.4016 40.3959 36.4672 40.3959 36.5178C40.3959 36.7603 40.224 36.9927 39.8802 37.215V37.1998C39.6476 37.3413 39.4504 37.412 39.2886 37.412C39.056 37.412 38.869 37.2958 38.7274 37.0634L38.7426 37.0786L35.8758 32.2739Z" fill="black"/>
<path d="M45.0954 32.8043C44.9235 32.8043 44.787 32.7387 44.6859 32.6073C44.5949 32.4658 44.5493 32.2789 44.5493 32.0465C44.5493 31.5312 44.7617 31.2735 45.1864 31.2735H46.7942C47.1684 31.2735 47.4313 31.1674 47.583 30.9552C47.7448 30.743 47.8257 30.5106 47.8257 30.258V27.7723C47.8257 27.5197 47.7448 27.2873 47.583 27.0751C47.4313 26.8629 47.1684 26.7568 46.7942 26.7568H43.6089V36.6542C43.6089 37.1392 43.3056 37.3817 42.6988 37.3817C42.1123 37.3817 41.8191 37.1392 41.8191 36.6542V26.1353C41.8191 25.7716 41.9101 25.5291 42.0921 25.4078C42.2741 25.2866 42.4966 25.2259 42.7595 25.2259H47.1886C47.4414 25.2259 47.7094 25.2815 47.9925 25.3927C48.2757 25.5038 48.5487 25.6453 48.8116 25.817H48.7964C49.0593 26.009 49.2616 26.2616 49.4031 26.5749C49.5447 26.878 49.6155 27.2317 49.6155 27.6359V30.3793C49.6155 31.1977 49.3425 31.809 48.7964 32.2132C48.5335 32.4052 48.2655 32.5517 47.9925 32.6528C47.7195 32.7538 47.4515 32.8043 47.1886 32.8043H45.0954Z" fill="black"/>
<path d="M56.2135 32.2739H55.0456C54.8737 32.2739 54.7372 32.2082 54.636 32.0768C54.545 31.9354 54.4995 31.7484 54.4995 31.516C54.4995 31.0007 54.7119 30.743 55.1366 30.743H56.9113C57.2854 30.743 57.5483 30.6369 57.7 30.4247C57.8517 30.2125 57.9275 29.9801 57.9275 29.7275V27.7723C57.9275 27.5197 57.8517 27.2873 57.7 27.0751C57.5483 26.8629 57.2854 26.7568 56.9113 26.7568H53.7108V36.639C53.7108 37.124 53.4125 37.3665 52.8159 37.3665C52.2192 37.3665 51.9209 37.124 51.9209 36.639V26.1353C51.9209 25.7716 52.012 25.5291 52.194 25.4078C52.3861 25.2866 52.6136 25.2259 52.8765 25.2259H57.2905C57.5534 25.2259 57.8264 25.2815 58.1095 25.3927C58.3927 25.5038 58.6657 25.6453 58.9286 25.817H58.9134C59.1764 26.009 59.3786 26.2616 59.5202 26.5749C59.6617 26.878 59.7325 27.2317 59.7325 27.6359V29.8488C59.7325 30.6672 59.4595 31.2786 58.9134 31.6827C58.8022 31.7636 58.6809 31.8394 58.5494 31.9101C58.4281 31.9808 58.3017 32.0516 58.1702 32.1223L60.5971 36.1237C60.6275 36.1742 60.6578 36.2399 60.6881 36.3207C60.7185 36.4016 60.7336 36.4672 60.7336 36.5178C60.7336 36.7603 60.5617 36.9927 60.2179 37.215V37.1998C59.9853 37.3413 59.7881 37.412 59.6264 37.412C59.3938 37.412 59.2067 37.2958 59.0651 37.0634L59.0803 37.0786L56.2135 32.2739Z" fill="black"/>
<path d="M67.8752 25.2259C68.1381 25.2259 68.4111 25.2815 68.6943 25.3927C68.9774 25.5038 69.2505 25.6453 69.5134 25.817H69.4982C69.7611 26.009 69.9634 26.2616 70.1049 26.5749C70.2465 26.878 70.3173 27.2317 70.3173 27.6359V34.8354C70.3173 35.6538 70.0443 36.2652 69.4982 36.6693C69.2353 36.8613 68.9623 37.0129 68.6791 37.124C68.4061 37.2251 68.1381 37.2756 67.8752 37.2756H64.5686C64.3056 37.2756 64.0326 37.2251 63.7495 37.124C63.4765 37.0129 63.2085 36.8613 62.9456 36.6693C62.6827 36.4672 62.4804 36.2197 62.3388 35.9267C62.1973 35.6235 62.1265 35.2597 62.1265 34.8354V27.6359C62.1265 27.2317 62.1973 26.878 62.3388 26.5749C62.4804 26.2616 62.6827 26.009 62.9456 25.817H62.9304C63.1933 25.6453 63.4663 25.5038 63.7495 25.3927C64.0326 25.2815 64.3056 25.2259 64.5686 25.2259H67.8752ZM67.496 35.7448C67.8702 35.7448 68.1331 35.6387 68.2847 35.4265C68.4364 35.2143 68.5123 34.9768 68.5123 34.7141V27.7723C68.5123 27.5197 68.4364 27.2873 68.2847 27.0751C68.1331 26.8629 67.8702 26.7568 67.496 26.7568H64.9478C64.5736 26.7568 64.3107 26.8629 64.159 27.0751C64.0073 27.2873 63.9315 27.5197 63.9315 27.7723V34.7141C63.9315 34.9768 64.0073 35.2143 64.159 35.4265C64.3107 35.6387 64.5736 35.7448 64.9478 35.7448H67.496Z" fill="black"/>
<path d="M78.3477 25.2259C78.6107 25.2259 78.8837 25.2815 79.1668 25.3927C79.45 25.5038 79.723 25.6453 79.9859 25.817H79.9707C80.2336 26.009 80.4359 26.2616 80.5775 26.5749C80.719 26.878 80.7898 27.2317 80.7898 27.6359V34.8354C80.7898 35.6538 80.5168 36.2652 79.9707 36.6693C79.7078 36.8613 79.4348 37.0129 79.1516 37.124C78.8786 37.2251 78.6107 37.2756 78.3477 37.2756H75.0411C74.7782 37.2756 74.5051 37.2251 74.222 37.124C73.949 37.0129 73.681 36.8613 73.4181 36.6693C73.1552 36.4672 72.9529 36.2197 72.8114 35.9267C72.6698 35.6235 72.599 35.2597 72.599 34.8354V27.6359C72.599 27.2317 72.6698 26.878 72.8114 26.5749C72.9529 26.2616 73.1552 26.009 73.4181 25.817H73.4029C73.6658 25.6453 73.9389 25.5038 74.222 25.3927C74.5051 25.2815 74.7782 25.2259 75.0411 25.2259H78.3477ZM77.9685 35.7448C78.3427 35.7448 78.6056 35.6387 78.7573 35.4265C78.909 35.2143 78.9848 34.9768 78.9848 34.7141V27.7723C78.9848 27.5197 78.909 27.2873 78.7573 27.0751C78.6056 26.8629 78.3427 26.7568 77.9685 26.7568H75.4203C75.0461 26.7568 74.7832 26.8629 74.6315 27.0751C74.4799 27.2873 74.404 27.5197 74.404 27.7723V34.7141C74.404 34.9768 74.4799 35.2143 74.6315 35.4265C74.7832 35.6387 75.0461 35.7448 75.4203 35.7448H77.9685Z" fill="black"/>
<path d="M84.8917 36.6239C84.8917 37.1089 84.5934 37.3514 83.9968 37.3514C83.4002 37.3514 83.1019 37.1089 83.1019 36.6239V26.1353C83.1019 25.9029 83.1676 25.6958 83.2991 25.5139C83.4305 25.3219 83.6833 25.2259 84.0575 25.2259H89.2146C89.5787 25.2259 89.7708 25.4785 89.791 25.9838C89.8113 26.4991 89.6191 26.7568 89.2146 26.7568H84.8917V36.6239ZM88.7748 31.0007C88.7748 31.1725 88.7394 31.3392 88.6686 31.5009C88.6079 31.6524 88.5169 31.7838 88.3956 31.8949C88.2843 32.0061 88.1529 32.097 88.0012 32.1678C87.8495 32.2284 87.6827 32.2587 87.5006 32.2587C87.1568 32.2587 86.8636 32.1374 86.6209 31.8949C86.3782 31.6524 86.2569 31.3543 86.2569 31.0007C86.2569 30.647 86.3782 30.3489 86.6209 30.1064C86.8636 29.8639 87.1568 29.7427 87.5006 29.7427C87.6827 29.7427 87.8495 29.778 88.0012 29.8488C88.1529 29.9094 88.2843 30.0003 88.3956 30.1216C88.5169 30.2327 88.6079 30.3641 88.6686 30.5157C88.7394 30.6672 88.7748 30.8289 88.7748 31.0007Z" fill="black"/>
<path d="M99.917 25.2259C100.16 25.2259 100.423 25.2815 100.706 25.3927C100.999 25.5038 101.277 25.6453 101.54 25.817H101.525C101.788 26.009 101.99 26.2616 102.132 26.5749C102.273 26.878 102.344 27.2317 102.344 27.6359V29.1212C102.344 29.6467 102.142 30.1418 101.737 30.6066C101.333 31.0613 100.756 31.4655 100.008 31.8191C99.2396 32.1728 98.653 32.5416 98.2486 32.9256C97.8542 33.3096 97.657 33.6986 97.657 34.0927V35.7448H101.98C102.364 35.7448 102.561 35.9923 102.571 36.4875C102.592 37.0129 102.395 37.2756 101.98 37.2756H96.8228C96.4385 37.2756 96.1857 37.1847 96.0644 37.0028C95.943 36.8108 95.8823 36.5935 95.8823 36.351V33.9563C95.8823 33.3197 96.0795 32.7639 96.4739 32.289C96.8683 31.804 97.4447 31.3897 98.2031 31.0462C98.9514 30.7329 99.5277 30.3995 99.9322 30.0458C100.347 29.6921 100.554 29.3435 100.554 29V27.7723C100.554 27.5197 100.473 27.2873 100.311 27.0751C100.16 26.8629 99.8968 26.7568 99.5227 26.7568H98.6884C98.3143 26.7568 98.0463 26.8629 97.8845 27.0751C97.7329 27.2873 97.657 27.5197 97.657 27.7723V28.3786C97.657 28.8535 97.3587 29.0909 96.7621 29.0909C96.1756 29.0909 95.8823 28.8535 95.8823 28.3786V27.6359C95.8823 27.2317 95.9531 26.878 96.0947 26.5749C96.2363 26.2616 96.4334 26.009 96.6862 25.817H96.6711C96.934 25.6453 97.207 25.5038 97.4902 25.3927C97.7834 25.2815 98.0615 25.2259 98.3244 25.2259H99.917Z" fill="black"/>
<path d="M106.764 36.0176C106.764 36.3611 106.647 36.6542 106.415 36.8967C106.182 37.1291 105.894 37.2453 105.55 37.2453C105.206 37.2453 104.918 37.1291 104.686 36.8967C104.453 36.6542 104.337 36.3611 104.337 36.0176C104.337 35.6841 104.453 35.4012 104.686 35.1688C104.918 34.9263 105.206 34.805 105.55 34.805C105.894 34.805 106.182 34.9263 106.415 35.1688C106.647 35.4012 106.764 35.6841 106.764 36.0176Z" fill="black"/>
<path d="M112.803 25.2259C113.056 25.2259 113.324 25.2815 113.607 25.3927C113.89 25.5038 114.163 25.6453 114.426 25.817H114.411C114.674 26.009 114.876 26.2616 115.018 26.5749C115.159 26.878 115.23 27.2317 115.23 27.6359V34.8354C115.23 35.2597 115.159 35.6235 115.018 35.9267C114.876 36.2197 114.674 36.4672 114.411 36.6693C114.148 36.8613 113.88 37.0129 113.607 37.124C113.334 37.2251 113.066 37.2756 112.803 37.2756H111.211C110.948 37.2756 110.675 37.2251 110.392 37.124C110.119 37.0129 109.851 36.8613 109.588 36.6693C109.325 36.4672 109.117 36.2197 108.966 35.9267C108.824 35.6235 108.753 35.2597 108.753 34.8354V27.6359C108.753 27.2317 108.824 26.878 108.966 26.5749C109.117 26.2616 109.325 26.009 109.588 25.817H109.573C109.835 25.6453 110.108 25.5038 110.392 25.3927C110.675 25.2815 110.948 25.2259 111.211 25.2259H112.803ZM112.409 35.7448C112.783 35.7448 113.046 35.6387 113.198 35.4265C113.36 35.2143 113.44 34.9768 113.44 34.7141V27.7723C113.44 27.5197 113.36 27.2873 113.198 27.0751C113.046 26.8629 112.783 26.7568 112.409 26.7568H111.575C111.201 26.7568 110.933 26.8629 110.771 27.0751C110.619 27.2873 110.543 27.5197 110.543 27.7723V34.7141C110.543 34.9768 110.619 35.2143 110.771 35.4265C110.933 35.6387 111.201 35.7448 111.575 35.7448H112.409Z" fill="black"/>
<g clip-path="url(#clip0_1853_676)">
<path d="M49.7189 7.24996V16.0409C49.7189 17.5882 50.9766 18.8449 52.525 18.8449H76.8193C78.3677 18.8449 79.6191 17.5882 79.6191 16.0409V7.26891C79.6191 6.59317 79.202 5.98689 78.5699 5.74691C75.0623 4.42069 63.2185 0.732528 50.7554 5.73428C50.1297 5.98689 49.7126 6.58053 49.7126 7.24996H49.7189Z" fill="black"/>
<path d="M72.1005 18.2923C76.2889 14.107 76.2889 7.32125 72.1005 3.13595C67.9121 -1.04935 61.1213 -1.04935 56.9329 3.13595C52.7445 7.32125 52.7445 14.107 56.9329 18.2923C61.1213 22.4776 67.9121 22.4776 72.1005 18.2923Z" fill="black"/>
<path d="M70.295 16.4882C73.4863 13.2992 73.4863 8.12898 70.295 4.94006C67.1037 1.75114 61.9296 1.75114 58.7383 4.94006C55.547 8.12898 55.547 13.2992 58.7383 16.4882C61.9296 19.6771 67.1037 19.6771 70.295 16.4882Z" fill="white"/>
<path d="M64.5141 16.5777C67.7533 16.5777 70.3791 13.9538 70.3791 10.7171C70.3791 7.48034 67.7533 4.85645 64.5141 4.85645C61.275 4.85645 58.6491 7.48034 58.6491 10.7171C58.6491 13.9538 61.275 16.5777 64.5141 16.5777Z" fill="#CEF8A1"/>
<path d="M69.5449 7.69832C69.5449 8.9677 68.5147 9.9971 67.2444 9.9971C65.9741 9.9971 64.9439 8.9677 64.9439 7.69832C64.9439 6.42894 65.9741 5.39954 67.2444 5.39954C68.5147 5.39954 69.5449 6.42894 69.5449 7.69832Z" fill="white"/>
<path d="M13.0942 6.51116L13.0815 4.32605L1.31992 4.7997C0.751111 4.82496 0.738471 5.65859 1.30728 5.69648L13.0942 6.51747V6.51116Z" fill="black"/>
<path d="M12.6265 4.28186L12.6391 6.46697L24.3944 5.99963C24.9632 5.97437 24.9759 5.14075 24.4071 5.10285L12.6202 4.28186H12.6265Z" fill="black"/>
<path d="M48.4549 16.521L10.7052 14.077V9.87726L48.4549 7.43323V16.521Z" fill="black"/>
<path d="M14.2318 8.13416H12.0134C11.2909 8.13416 10.7052 8.71944 10.7052 9.44143V14.3169C10.7052 15.0389 11.2909 15.6242 12.0134 15.6242H14.2318C14.9543 15.6242 15.54 15.0389 15.54 14.3169V9.44143C15.54 8.71944 14.9543 8.13416 14.2318 8.13416Z" fill="black"/>
<path d="M14.1559 10.0288H11.9313V4.38286C11.9313 3.77027 12.4306 3.27136 13.0436 3.27136C13.6567 3.27136 14.1559 3.77027 14.1559 4.38286V10.0288Z" fill="black"/>
<path d="M116.44 6.51116L116.452 4.32605L128.208 4.79339C128.776 4.81865 128.789 5.65227 128.22 5.69016L116.433 6.51116H116.44Z" fill="black"/>
<path d="M116.907 4.28186L116.895 6.46697L105.139 5.99963C104.571 5.97437 104.558 5.14075 105.127 5.10285L116.914 4.28186H116.907Z" fill="black"/>
<path d="M81.079 16.521L118.835 14.077V9.87726L81.079 7.43323V16.521Z" fill="black"/>
<path d="M117.527 8.13416H115.308C114.586 8.13416 114 8.71944 114 9.44143V14.3169C114 15.0389 114.586 15.6242 115.308 15.6242H117.527C118.249 15.6242 118.835 15.0389 118.835 14.3169V9.44143C118.835 8.71944 118.249 8.13416 117.527 8.13416Z" fill="black"/>
<path d="M115.378 10.0288H117.603V4.38286C117.603 3.77027 117.103 3.27136 116.49 3.27136C115.877 3.27136 115.378 3.77027 115.378 4.38286V10.0288Z" fill="black"/>
</g>
<defs>
<clipPath id="clip0_1853_676">
<rect width="130.092" height="21.428" fill="white" transform="translate(0.890152)"/>
</clipPath>
</defs>
</svg>
