<?xml version="1.0" encoding="utf-8"?>
<!-- Generator: Adobe Illustrator 26.5.2, SVG Export Plug-In . SVG Version: 6.00 Build 0)  -->
<svg version="1.1" id="Layer_1" xmlns="http://www.w3.org/2000/svg" xmlns:xlink="http://www.w3.org/1999/xlink" x="0px" y="0px"
	 viewBox="0 0 82 60" style="enable-background:new 0 0 82 60;" xml:space="preserve">
<style type="text/css">
	.st0{fill:#3A3A42;}
	.st1{clip-path:url(#SVGID_00000041266753950929280130000004949200652794934940_);}
	.st2{fill:#CEF8A1;}
	.st3{fill:#282828;}
	.st4{fill:#BBE1FA;}
	.st5{fill:#FFFFFF;}
</style>
<g>
	<g>
		<rect y="0" class="st0" width="82" height="60"/>
		<g>
			<g>
				<g>
					<defs>
						<rect id="SVGID_1_" x="5.5" y="21" width="69.8" height="17.9"/>
					</defs>
					<clipPath id="SVGID_00000036963142663417341550000011684635510928244148_">
						<use xlink:href="#SVGID_1_"  style="overflow:visible;"/>
					</clipPath>
					<g style="clip-path:url(#SVGID_00000036963142663417341550000011684635510928244148_);">
						<path class="st2" d="M75.4,21H5.5v18h69.8L75.4,21L75.4,21z"/>
						<path class="st3" d="M30.5,31.2H11c-0.2,0-0.3,0.1-0.3,0.3v0.6c0,0.2,0.1,0.3,0.3,0.3h19.5c0.2,0,0.3-0.1,0.3-0.3v-0.6
							C30.8,31.3,30.7,31.2,30.5,31.2z"/>
						<path class="st3" d="M18.8,27.3h-7.2c-0.5,0-0.9,0.4-0.9,0.9v0.9c0,0.5,0.4,0.9,0.9,0.9h7.2c0.5,0,0.9-0.4,0.9-0.9v-0.9
							C19.7,27.7,19.3,27.3,18.8,27.3z"/>
						<path class="st4" d="M67.1,28.3h-6.2c-0.7,0-1.2,0.5-1.2,1.2v1.2c0,0.7,0.5,1.2,1.2,1.2h6.2c0.7,0,1.2-0.5,1.2-1.2v-1.2
							C68.3,28.9,67.8,28.3,67.1,28.3z"/>
						<path class="st5" d="M57.5,28.3H38.9c-0.7,0-1.2,0.5-1.2,1.2v1.2c0,0.7,0.5,1.2,1.2,1.2h18.6c0.7,0,1.2-0.5,1.2-1.2v-1.2
							C58.7,28.9,58.2,28.3,57.5,28.3z"/>
					</g>
				</g>
			</g>
		</g>
	</g>
</g>
</svg>
