<svg xmlns="http://www.w3.org/2000/svg" xmlns:xlink="http://www.w3.org/1999/xlink"
	width="234px" height="50px"  viewBox="0 0 234 60">
<style type="text/css">
	.st0{clip-path:url(#SVGID_00000149347723311200132280000015348784276920772538_);}
	.st1{fill:#FFFFFF;filter:url(#Adobe_OpacityMaskFilter);}
	.st2{mask:url(#mask0_2003_1047_00000135673121246307893350000010179149468901320098_);}
	.st3{fill:#FFFFFF;filter:url(#Adobe_OpacityMaskFilter_00000153677772880614572230000016107268028970615728_);}
	.st4{mask:url(#mask1_2003_1047_00000081618355432246918170000015121005335571861904_);}
	.st5{fill:#DCE1E3;}
	.st6{fill:#FFFFFF;filter:url(#Adobe_OpacityMaskFilter_00000016047078866115486940000010867128426657267351_);}
	.st7{mask:url(#mask2_2003_1047_00000131341839835531796810000005019026627504142981_);}
	.st8{fill:#FFFFFF;filter:url(#Adobe_OpacityMaskFilter_00000034799840833899613950000017643721359100139684_);}
	.st9{mask:url(#mask3_2003_1047_00000167391232637284747070000006149285280665278126_);}
	.st10{fill:#FFFFFF;filter:url(#Adobe_OpacityMaskFilter_00000074410459314964187790000015257834464026203582_);}
	.st11{mask:url(#mask5_2003_1047_00000082362464235791709450000004856080179309455496_);}
	.st12{fill:#FFFFFF;filter:url(#Adobe_OpacityMaskFilter_00000068661570785878170660000013972689392535302307_);}
	.st13{mask:url(#mask6_2003_1047_00000043459392503053016040000005812994082508390016_);}
	.st14{fill:#FFFFFF;filter:url(#Adobe_OpacityMaskFilter_00000168099439476932925100000016074359440813787273_);}
	.st15{mask:url(#mask7_2003_1047_00000022544533279275280390000002970931198134442413_);}
	.st16{fill:#FFFFFF;filter:url(#Adobe_OpacityMaskFilter_00000119817596960876349520000014594154211782861702_);}
	.st17{mask:url(#mask8_2003_1047_00000085214633185748106100000008443256246135608192_);}
	.st18{fill:#FFFFFF;filter:url(#Adobe_OpacityMaskFilter_00000106126740438548211790000008204220461794051458_);}
	.st19{mask:url(#mask9_2003_1047_00000177464332118759777340000007457295834384224152_);}
	.st20{fill:#CEF8A1;}
	.st21{fill:#FFFFFF;filter:url(#Adobe_OpacityMaskFilter_00000158017297409399453100000005547287187481706159_);}
	.st22{mask:url(#mask5_2003_1047_00000055704535195217019860000015435698572501064081_);}
	.st23{fill:#FFFFFF;}
	.st24{fill:#FFFFFF;filter:url(#Adobe_OpacityMaskFilter_00000109008904057293594260000011841559130436117170_);}
	.st25{mask:url(#mask5_2003_1047_00000065047473723516883760000000288995503726414473_);}
</style>
<g>
	<defs>
		<rect id="SVGID_1_" y="0" width="234" height="60"/>
	</defs>
	<clipPath id="SVGID_00000141436173161805275610000000396582253120364421_">
		<use xlink:href="#SVGID_1_"  style="overflow:visible;"/>
	</clipPath>
	<g style="clip-path:url(#SVGID_00000141436173161805275610000000396582253120364421_);">
		<defs>
			<filter id="Adobe_OpacityMaskFilter" filterUnits="userSpaceOnUse" x="0" y="0" width="234" height="60">
				<feColorMatrix  type="matrix" values="1 0 0 0 0  0 1 0 0 0  0 0 1 0 0  0 0 0 1 0"/>
			</filter>
		</defs>
		
			<mask maskUnits="userSpaceOnUse" x="0" y="0" width="234" height="60" id="mask0_2003_1047_00000135673121246307893350000010179149468901320098_">
			<path class="st1" d="M234,0H0v60h234V0z"/>
		</mask>
		<g class="st2">
			<path d="M234,0H0v60h234V0z"/>
		</g>
		<defs>
			
				<filter id="Adobe_OpacityMaskFilter_00000003081803838150392670000002318943255283667860_" filterUnits="userSpaceOnUse" x="39.8" y="45.6" width="6.6" height="6.6">
				<feColorMatrix  type="matrix" values="1 0 0 0 0  0 1 0 0 0  0 0 1 0 0  0 0 0 1 0"/>
			</filter>
		</defs>
		
			<mask maskUnits="userSpaceOnUse" x="39.8" y="45.6" width="6.6" height="6.6" id="mask1_2003_1047_00000081618355432246918170000015121005335571861904_">
			<path style="fill:#FFFFFF;filter:url(#Adobe_OpacityMaskFilter_00000003081803838150392670000002318943255283667860_);" d="
				M234,2H0v60h234V2z"/>
		</mask>
		<g class="st4">
			<path class="st5" d="M43.1,52.2c1.8,0,3.3-1.5,3.3-3.3c0-1.8-1.5-3.3-3.3-3.3c-1.8,0-3.3,1.5-3.3,3.3
				C39.8,50.7,41.3,52.2,43.1,52.2z"/>
		</g>
		<defs>
			
				<filter id="Adobe_OpacityMaskFilter_00000110468767520166698730000003979721249124029374_" filterUnits="userSpaceOnUse" x="29.1" y="45.6" width="6.6" height="6.6">
				<feColorMatrix  type="matrix" values="1 0 0 0 0  0 1 0 0 0  0 0 1 0 0  0 0 0 1 0"/>
			</filter>
		</defs>
		
			<mask maskUnits="userSpaceOnUse" x="29.1" y="45.6" width="6.6" height="6.6" id="mask2_2003_1047_00000131341839835531796810000005019026627504142981_">
			<path style="fill:#FFFFFF;filter:url(#Adobe_OpacityMaskFilter_00000110468767520166698730000003979721249124029374_);" d="
				M234,2H0v60h234V2z"/>
		</mask>
		<g class="st7">
			<path class="st5" d="M32.4,52.2c1.8,0,3.3-1.5,3.3-3.3c0-1.8-1.5-3.3-3.3-3.3c-1.8,0-3.3,1.5-3.3,3.3
				C29.1,50.7,30.6,52.2,32.4,52.2z"/>
		</g>
		<defs>
			
				<filter id="Adobe_OpacityMaskFilter_00000057129988792055483160000015263216419806526651_" filterUnits="userSpaceOnUse" x="18.4" y="45.6" width="6.6" height="6.6">
				<feColorMatrix  type="matrix" values="1 0 0 0 0  0 1 0 0 0  0 0 1 0 0  0 0 0 1 0"/>
			</filter>
		</defs>
		
			<mask maskUnits="userSpaceOnUse" x="18.4" y="45.6" width="6.6" height="6.6" id="mask3_2003_1047_00000167391232637284747070000006149285280665278126_">
			<path style="fill:#FFFFFF;filter:url(#Adobe_OpacityMaskFilter_00000057129988792055483160000015263216419806526651_);" d="
				M234,2H0v60h234V2z"/>
		</mask>
		<g class="st9">
			<path class="st5" d="M21.7,52.2c1.8,0,3.3-1.5,3.3-3.3c0-1.8-1.5-3.3-3.3-3.3c-1.8,0-3.3,1.5-3.3,3.3
				C18.4,50.7,19.9,52.2,21.7,52.2z"/>
		</g>
		<defs>
			
				<filter id="Adobe_OpacityMaskFilter_00000031914903790667691220000003331740099435762607_" filterUnits="userSpaceOnUse" x="18.4" y="25.8" width="65" height="4">
				<feColorMatrix  type="matrix" values="1 0 0 0 0  0 1 0 0 0  0 0 1 0 0  0 0 0 1 0"/>
			</filter>
		</defs>
		
			<mask maskUnits="userSpaceOnUse" x="18.4" y="25.8" width="65" height="4" id="mask5_2003_1047_00000082362464235791709450000004856080179309455496_">
			<path style="fill:#FFFFFF;filter:url(#Adobe_OpacityMaskFilter_00000031914903790667691220000003331740099435762607_);" d="
				M234,5H0v60h234V5z"/>
		</mask>
		<g class="st11">
			<path class="st5" d="M82.4,25.8h-63c-0.6,0-1,0.4-1,1v2c0,0.6,0.4,1,1,1h63c0.6,0,1-0.4,1-1v-2C83.4,26.3,83,25.8,82.4,25.8z"/>
		</g>
		<defs>
			
				<filter id="Adobe_OpacityMaskFilter_00000108308627491310277350000007196973336747285424_" filterUnits="userSpaceOnUse" x="18.4" y="33.8" width="65" height="4">
				<feColorMatrix  type="matrix" values="1 0 0 0 0  0 1 0 0 0  0 0 1 0 0  0 0 0 1 0"/>
			</filter>
		</defs>
		
			<mask maskUnits="userSpaceOnUse" x="18.4" y="33.8" width="65" height="4" id="mask6_2003_1047_00000043459392503053016040000005812994082508390016_">
			<path style="fill:#FFFFFF;filter:url(#Adobe_OpacityMaskFilter_00000108308627491310277350000007196973336747285424_);" d="
				M234,5H0v60h234V5z"/>
		</mask>
		<g class="st13">
			<path class="st5" d="M82.4,33.8h-63c-0.6,0-1,0.4-1,1v2c0,0.6,0.4,1,1,1h63c0.6,0,1-0.4,1-1v-2C83.4,34.3,83,33.8,82.4,33.8z"/>
		</g>
		<defs>
			
				<filter id="Adobe_OpacityMaskFilter_00000137841859099348080910000017084995902422334396_" filterUnits="userSpaceOnUse" x="120.6" y="25.9" width="23.2" height="20">
				<feColorMatrix  type="matrix" values="1 0 0 0 0  0 1 0 0 0  0 0 1 0 0  0 0 0 1 0"/>
			</filter>
		</defs>
		
			<mask maskUnits="userSpaceOnUse" x="120.6" y="25.9" width="23.2" height="20" id="mask7_2003_1047_00000022544533279275280390000002970931198134442413_">
			<path style="fill:#FFFFFF;filter:url(#Adobe_OpacityMaskFilter_00000137841859099348080910000017084995902422334396_);" d="
				M234,5H0v60h234V5z"/>
		</mask>
		<g class="st15">
			<path class="st5" d="M142.8,25.9h-21.2c-0.6,0-1,0.4-1,1v2c0,0.6,0.4,1,1,1h21.2c0.6,0,1-0.4,1-1v-2
				C143.8,26.3,143.4,25.9,142.8,25.9z"/>
			<path class="st5" d="M142.8,33.9h-21.2c-0.6,0-1,0.4-1,1v2c0,0.6,0.4,1,1,1h21.2c0.6,0,1-0.4,1-1v-2
				C143.8,34.3,143.4,33.9,142.8,33.9z"/>
			<path class="st5" d="M142.8,41.9h-21.2c-0.6,0-1,0.4-1,1v2c0,0.6,0.4,1,1,1h21.2c0.6,0,1-0.4,1-1v-2
				C143.8,42.4,143.4,41.9,142.8,41.9z"/>
		</g>
		<defs>
			
				<filter id="Adobe_OpacityMaskFilter_00000026160573216252420380000010530444815807450298_" filterUnits="userSpaceOnUse" x="155.8" y="25.9" width="23.2" height="20">
				<feColorMatrix  type="matrix" values="1 0 0 0 0  0 1 0 0 0  0 0 1 0 0  0 0 0 1 0"/>
			</filter>
		</defs>
		
			<mask maskUnits="userSpaceOnUse" x="155.8" y="25.9" width="23.2" height="20" id="mask8_2003_1047_00000085214633185748106100000008443256246135608192_">
			<path style="fill:#FFFFFF;filter:url(#Adobe_OpacityMaskFilter_00000026160573216252420380000010530444815807450298_);" d="
				M234,5H0v60h234V5z"/>
		</mask>
		<g class="st17">
			<path class="st5" d="M178,25.9h-21.2c-0.6,0-1,0.4-1,1v2c0,0.6,0.4,1,1,1H178c0.6,0,1-0.4,1-1v-2C179,26.3,178.5,25.9,178,25.9z"
				/>
			<path class="st5" d="M178,33.9h-21.2c-0.6,0-1,0.4-1,1v2c0,0.6,0.4,1,1,1H178c0.6,0,1-0.4,1-1v-2C179,34.3,178.5,33.9,178,33.9z"
				/>
			<path class="st5" d="M178,41.9h-21.2c-0.6,0-1,0.4-1,1v2c0,0.6,0.4,1,1,1H178c0.6,0,1-0.4,1-1v-2C179,42.4,178.5,41.9,178,41.9z"
				/>
		</g>
		<defs>
			
				<filter id="Adobe_OpacityMaskFilter_00000052805380297461852420000006305001605962101679_" filterUnits="userSpaceOnUse" x="192.8" y="25.9" width="23.2" height="20">
				<feColorMatrix  type="matrix" values="1 0 0 0 0  0 1 0 0 0  0 0 1 0 0  0 0 0 1 0"/>
			</filter>
		</defs>
		
			<mask maskUnits="userSpaceOnUse" x="192.8" y="25.9" width="23.2" height="20" id="mask9_2003_1047_00000177464332118759777340000007457295834384224152_">
			<path style="fill:#FFFFFF;filter:url(#Adobe_OpacityMaskFilter_00000052805380297461852420000006305001605962101679_);" d="
				M234,5H0v60h234V5z"/>
		</mask>
		<g class="st19">
			<path class="st5" d="M215,25.9h-21.2c-0.6,0-1,0.4-1,1v2c0,0.6,0.4,1,1,1H215c0.6,0,1-0.4,1-1v-2C216,26.3,215.5,25.9,215,25.9z"
				/>
			<path class="st5" d="M215,33.9h-21.2c-0.6,0-1,0.4-1,1v2c0,0.6,0.4,1,1,1H215c0.6,0,1-0.4,1-1v-2C216,34.3,215.5,33.9,215,33.9z"
				/>
			<path class="st5" d="M215,41.9h-21.2c-0.6,0-1,0.4-1,1v2c0,0.6,0.4,1,1,1H215c0.6,0,1-0.4,1-1v-2C216,42.4,215.5,41.9,215,41.9z"
				/>
		</g>
		<rect y="0" class="st20" width="234" height="16.7"/>
	</g>
</g>
<defs>
	
		<filter id="Adobe_OpacityMaskFilter_00000086674274189309568910000015513882452719031999_" filterUnits="userSpaceOnUse" x="120.6" y="6.3" width="65" height="4">
		<feColorMatrix  type="matrix" values="1 0 0 0 0  0 1 0 0 0  0 0 1 0 0  0 0 0 1 0"/>
	</filter>
</defs>
<mask maskUnits="userSpaceOnUse" x="120.6" y="6.3" width="65" height="4" id="mask5_2003_1047_00000055704535195217019860000015435698572501064081_">
	<path style="fill:#FFFFFF;filter:url(#Adobe_OpacityMaskFilter_00000086674274189309568910000015513882452719031999_);" d="
		M336.2-14.5h-234v60h234V-14.5z"/>
</mask>
<g class="st22">
	<path class="st23" d="M184.6,6.3h-63c-0.6,0-1,0.4-1,1v2c0,0.6,0.4,1,1,1h63c0.6,0,1-0.4,1-1v-2C185.6,6.8,185.2,6.3,184.6,6.3z"/>
</g>
<path class="st23" d="M214.9,6.3h-21.2c-0.6,0-1,0.4-1,1v2c0,0.6,0.4,1,1,1h21.2c0.6,0,1-0.4,1-1v-2C215.9,6.7,215.5,6.3,214.9,6.3z
	"/>
<defs>
	
		<filter id="Adobe_OpacityMaskFilter_00000052823431937906845440000002400599129510139571_" filterUnits="userSpaceOnUse" x="18.5" y="6.3" width="65" height="4">
		<feColorMatrix  type="matrix" values="1 0 0 0 0  0 1 0 0 0  0 0 1 0 0  0 0 0 1 0"/>
	</filter>
</defs>
<mask maskUnits="userSpaceOnUse" x="18.5" y="6.3" width="65" height="4" id="mask5_2003_1047_00000065047473723516883760000000288995503726414473_">
	<path style="fill:#FFFFFF;filter:url(#Adobe_OpacityMaskFilter_00000052823431937906845440000002400599129510139571_);" d="
		M234.1-14.5H0.1v60h234V-14.5z"/>
</mask>
<g class="st25">
	<path d="M82.5,6.3h-63c-0.6,0-1,0.4-1,1v2c0,0.6,0.4,1,1,1h63c0.6,0,1-0.4,1-1v-2C83.5,6.8,83.1,6.3,82.5,6.3z"/>
</g>
</svg>
