<svg xmlns="http://www.w3.org/2000/svg" xmlns:xlink="http://www.w3.org/1999/xlink" width="234px" height="50px" viewBox="0 0 234 60">
<style type="text/css">
	.st0{fill:#FFFFFF;}
	.st1{fill:#CEF8A1;}
</style>
<path class="st0" d="M234,0.1H0.2v60H234V0.1z"/>
<g>
	<polygon points="98,24.7 94.8,24.7 94.8,35.9 103.3,35.9 103.3,33.4 98,33.4 	"/>
	<path d="M114.4,26.2c-0.6-0.5-1.2-0.9-2-1.2c-0.8-0.3-1.6-0.4-2.5-0.4s-1.7,0.1-2.5,0.4s-1.4,0.7-2,1.2s-1,1.1-1.3,1.8
		c-0.3,0.7-0.5,1.5-0.5,2.3s0.2,1.6,0.5,2.3c0.3,0.7,0.7,1.4,1.3,1.9c0.6,0.5,1.2,0.9,2,1.2s1.6,0.4,2.5,0.4s1.7-0.1,2.5-0.5
		c0.8-0.3,1.4-0.7,2-1.2s1-1.1,1.3-1.8s0.5-1.5,0.5-2.3s-0.2-1.6-0.5-2.3S115,26.7,114.4,26.2z M112.7,31.7c-0.1,0.4-0.3,0.7-0.6,1
		c-0.3,0.2-0.6,0.5-1,0.6s-0.8,0.2-1.2,0.2c-0.4,0-0.8-0.1-1.2-0.2c-0.4-0.1-0.7-0.3-1-0.6c-0.2-0.3-0.4-0.6-0.6-1
		c-0.1-0.4-0.2-0.8-0.2-1.3s0.1-0.9,0.2-1.3s0.3-0.7,0.6-1c0.3-0.3,0.6-0.6,1-0.7s0.8-0.2,1.2-0.2c0.4,0,0.8,0.1,1.2,0.2
		c0.4,0.2,0.7,0.4,1,0.7c0.2,0.3,0.5,0.6,0.6,1s0.2,0.8,0.2,1.3S112.9,31.3,112.7,31.7z"/>
	<path d="M121.1,28c0.3-0.3,0.6-0.6,1-0.7s0.8-0.2,1.3-0.2c0.6,0,1.1,0.1,1.5,0.3c0.4,0.2,0.8,0.5,1.2,0.9l2-1.8
		c-0.6-0.6-1.3-1.1-2.1-1.5c-0.8-0.3-1.7-0.5-2.8-0.5c-0.9,0-1.7,0.1-2.5,0.4s-1.4,0.7-2,1.2c-0.6,0.6-1,1.2-1.3,1.9
		c-0.3,0.7-0.5,1.4-0.5,2.3s0.2,1.7,0.5,2.4c0.3,0.7,0.8,1.3,1.3,1.8c0.6,0.5,1.2,0.9,2,1.2s1.6,0.4,2.5,0.4c0.8,0,1.6-0.1,2.6-0.3
		c0.8-0.3,1.6-0.6,2.2-1.1l-0.1-0.1v-4.5h-2.8v3.1c-0.1,0-0.2,0.1-0.3,0.1c-0.5,0.1-0.9,0.2-1.4,0.2s-0.9-0.1-1.3-0.2
		c-0.4-0.2-0.7-0.4-1-0.7s-0.5-0.6-0.7-1c-0.1-0.4-0.2-0.8-0.2-1.3s0.1-0.9,0.2-1.3C120.6,28.6,120.8,28.3,121.1,28z"/>
	<path d="M139.9,26.2c-0.6-0.5-1.2-0.9-2-1.2c-0.8-0.3-1.6-0.4-2.5-0.4s-1.7,0.1-2.5,0.4s-1.4,0.7-2,1.2s-1,1.1-1.3,1.8
		c-0.3,0.7-0.5,1.5-0.5,2.3s0.2,1.6,0.5,2.3c0.3,0.7,0.7,1.4,1.3,1.9s1.2,0.9,2,1.2s1.6,0.4,2.5,0.4s1.7-0.1,2.5-0.5
		c0.8-0.3,1.4-0.7,2-1.2s1-1.1,1.3-1.8s0.5-1.5,0.5-2.3s-0.2-1.6-0.5-2.3S140.5,26.7,139.9,26.2z M138.2,31.7
		c-0.1,0.4-0.3,0.7-0.6,1c-0.3,0.2-0.6,0.5-1,0.6s-0.8,0.2-1.2,0.2s-0.8-0.1-1.2-0.2c-0.4-0.1-0.7-0.3-1-0.6c-0.2-0.3-0.4-0.6-0.6-1
		c-0.1-0.4-0.2-0.8-0.2-1.3s0.1-0.9,0.2-1.3c0.1-0.4,0.3-0.7,0.6-1s0.6-0.6,1-0.7s0.8-0.2,1.2-0.2s0.8,0.1,1.2,0.2
		c0.4,0.2,0.7,0.4,1,0.7c0.2,0.3,0.5,0.6,0.6,1s0.2,0.8,0.2,1.3S138.4,31.3,138.2,31.7z"/>
	<path d="M26.9,29.9h-13c-0.5,0-1,0.4-1,1v2c0,0.6,0.4,1,1,1h13c0.6,0,1-0.4,1-1v-2C27.9,30.3,27.5,29.9,26.9,29.9z"/>
	<path d="M46.9,29.9h-13c-0.5,0-1,0.4-1,1v2c0,0.6,0.4,1,1,1h13c0.6,0,1-0.4,1-1v-2C47.9,30.3,47.5,29.9,46.9,29.9z"/>
	<path d="M66.9,29.9h-13c-0.5,0-1,0.4-1,1v2c0,0.6,0.4,1,1,1h13c0.6,0,1-0.4,1-1v-2C67.9,30.3,67.5,29.9,66.9,29.9z"/>
	<path class="st1" d="M218.5,26.9h-11c-2.8,0-5,2.2-5,5s2.2,5,5,5h11c2.8,0,5-2.2,5-5S221.3,26.9,218.5,26.9z"/>
	<path d="M176,29.9h-13c-0.6,0-1,0.4-1,1v2c0,0.6,0.4,1,1,1h13c0.6,0,1-0.4,1-1v-2C177,30.3,176.6,29.9,176,29.9z"/>
	<path d="M196,29.9h-13c-0.6,0-1,0.4-1,1v2c0,0.6,0.4,1,1,1h13c0.6,0,1-0.4,1-1v-2C197,30.3,196.6,29.9,196,29.9z"/>
</g>
</svg>
